<?xml version="1.0" encoding="utf-8" standalone="no"?>
<!DOCTYPE svg PUBLIC "-//W3C//DTD SVG 1.1//EN"
  "http://www.w3.org/Graphics/SVG/1.1/DTD/svg11.dtd">
<!-- Created with matplotlib (https://matplotlib.org/) -->
<svg height="576pt" version="1.1" viewBox="0 0 864 576" width="864pt" xmlns="http://www.w3.org/2000/svg" xmlns:xlink="http://www.w3.org/1999/xlink">
 <defs>
  <style type="text/css">
*{stroke-linecap:butt;stroke-linejoin:round;}
  </style>
 </defs>
 <g id="figure_1">
  <g id="patch_1">
   <path d="M 0 576 
L 864 576 
L 864 0 
L 0 0 
z
" style="fill:#ffffff;"/>
  </g>
  <g id="axes_1">
   <g id="patch_2">
    <path d="M 86.4 285.47122 
L 303.793548 285.47122 
L 303.793548 69.12 
L 86.4 69.12 
z
" style="fill:#eaeaf2;"/>
   </g>
   <g id="matplotlib.axis_1">
    <g id="xtick_1"/>
    <g id="xtick_2"/>
    <g id="xtick_3"/>
    <g id="xtick_4"/>
    <g id="xtick_5"/>
   </g>
   <g id="matplotlib.axis_2">
    <g id="ytick_1">
     <g id="line2d_1">
      <path clip-path="url(#p772597dbee)" d="M 86.4 260.476154 
L 303.793548 260.476154 
" style="fill:none;stroke:#ffffff;stroke-linecap:round;"/>
     </g>
     <g id="text_1">
      <!-- 5.0 -->
      <defs>
       <path d="M 4.15625 18.75 
L 13.375 19.53125 
Q 14.40625 12.796875 18.140625 9.390625 
Q 21.875 6 27.15625 6 
Q 33.5 6 37.890625 10.78125 
Q 42.28125 15.578125 42.28125 23.484375 
Q 42.28125 31 38.0625 35.34375 
Q 33.84375 39.703125 27 39.703125 
Q 22.75 39.703125 19.328125 37.765625 
Q 15.921875 35.84375 13.96875 32.765625 
L 5.71875 33.84375 
L 12.640625 70.609375 
L 48.25 70.609375 
L 48.25 62.203125 
L 19.671875 62.203125 
L 15.828125 42.96875 
Q 22.265625 47.46875 29.34375 47.46875 
Q 38.71875 47.46875 45.15625 40.96875 
Q 51.609375 34.46875 51.609375 24.265625 
Q 51.609375 14.546875 45.953125 7.46875 
Q 39.0625 -1.21875 27.15625 -1.21875 
Q 17.390625 -1.21875 11.203125 4.25 
Q 5.03125 9.71875 4.15625 18.75 
z
" id="ArialMT-53"/>
       <path d="M 9.078125 0 
L 9.078125 10.015625 
L 19.09375 10.015625 
L 19.09375 0 
z
" id="ArialMT-46"/>
       <path d="M 4.15625 35.296875 
Q 4.15625 48 6.765625 55.734375 
Q 9.375 63.484375 14.515625 67.671875 
Q 19.671875 71.875 27.484375 71.875 
Q 33.25 71.875 37.59375 69.546875 
Q 41.9375 67.234375 44.765625 62.859375 
Q 47.609375 58.5 49.21875 52.21875 
Q 50.828125 45.953125 50.828125 35.296875 
Q 50.828125 22.703125 48.234375 14.96875 
Q 45.65625 7.234375 40.5 3 
Q 35.359375 -1.21875 27.484375 -1.21875 
Q 17.140625 -1.21875 11.234375 6.203125 
Q 4.15625 15.140625 4.15625 35.296875 
z
M 13.1875 35.296875 
Q 13.1875 17.671875 17.3125 11.828125 
Q 21.4375 6 27.484375 6 
Q 33.546875 6 37.671875 11.859375 
Q 41.796875 17.71875 41.796875 35.296875 
Q 41.796875 52.984375 37.671875 58.78125 
Q 33.546875 64.59375 27.390625 64.59375 
Q 21.34375 64.59375 17.71875 59.46875 
Q 13.1875 52.9375 13.1875 35.296875 
z
" id="ArialMT-48"/>
      </defs>
      <g style="fill:#262626;" transform="translate(61.61 264.41295)scale(0.11 -0.11)">
       <use xlink:href="#ArialMT-53"/>
       <use x="55.615234" xlink:href="#ArialMT-46"/>
       <use x="83.398438" xlink:href="#ArialMT-48"/>
      </g>
     </g>
    </g>
    <g id="ytick_2">
     <g id="line2d_2">
      <path clip-path="url(#p772597dbee)" d="M 86.4 230.440369 
L 303.793548 230.440369 
" style="fill:none;stroke:#ffffff;stroke-linecap:round;"/>
     </g>
     <g id="text_2">
      <!-- 7.5 -->
      <defs>
       <path d="M 4.734375 62.203125 
L 4.734375 70.65625 
L 51.078125 70.65625 
L 51.078125 63.8125 
Q 44.234375 56.546875 37.515625 44.484375 
Q 30.8125 32.421875 27.15625 19.671875 
Q 24.515625 10.6875 23.78125 0 
L 14.75 0 
Q 14.890625 8.453125 18.0625 20.40625 
Q 21.234375 32.375 27.171875 43.484375 
Q 33.109375 54.59375 39.796875 62.203125 
z
" id="ArialMT-55"/>
      </defs>
      <g style="fill:#262626;" transform="translate(61.61 234.377166)scale(0.11 -0.11)">
       <use xlink:href="#ArialMT-55"/>
       <use x="55.615234" xlink:href="#ArialMT-46"/>
       <use x="83.398438" xlink:href="#ArialMT-53"/>
      </g>
     </g>
    </g>
    <g id="ytick_3">
     <g id="line2d_3">
      <path clip-path="url(#p772597dbee)" d="M 86.4 200.404585 
L 303.793548 200.404585 
" style="fill:none;stroke:#ffffff;stroke-linecap:round;"/>
     </g>
     <g id="text_3">
      <!-- 10.0 -->
      <defs>
       <path d="M 37.25 0 
L 28.46875 0 
L 28.46875 56 
Q 25.296875 52.984375 20.140625 49.953125 
Q 14.984375 46.921875 10.890625 45.40625 
L 10.890625 53.90625 
Q 18.265625 57.375 23.78125 62.296875 
Q 29.296875 67.234375 31.59375 71.875 
L 37.25 71.875 
z
" id="ArialMT-49"/>
      </defs>
      <g style="fill:#262626;" transform="translate(55.492969 204.341382)scale(0.11 -0.11)">
       <use xlink:href="#ArialMT-49"/>
       <use x="55.615234" xlink:href="#ArialMT-48"/>
       <use x="111.230469" xlink:href="#ArialMT-46"/>
       <use x="139.013672" xlink:href="#ArialMT-48"/>
      </g>
     </g>
    </g>
    <g id="ytick_4">
     <g id="line2d_4">
      <path clip-path="url(#p772597dbee)" d="M 86.4 170.368801 
L 303.793548 170.368801 
" style="fill:none;stroke:#ffffff;stroke-linecap:round;"/>
     </g>
     <g id="text_4">
      <!-- 12.5 -->
      <defs>
       <path d="M 50.34375 8.453125 
L 50.34375 0 
L 3.03125 0 
Q 2.9375 3.171875 4.046875 6.109375 
Q 5.859375 10.9375 9.828125 15.625 
Q 13.8125 20.3125 21.34375 26.46875 
Q 33.015625 36.03125 37.109375 41.625 
Q 41.21875 47.21875 41.21875 52.203125 
Q 41.21875 57.421875 37.46875 61 
Q 33.734375 64.59375 27.734375 64.59375 
Q 21.390625 64.59375 17.578125 60.78125 
Q 13.765625 56.984375 13.71875 50.25 
L 4.6875 51.171875 
Q 5.609375 61.28125 11.65625 66.578125 
Q 17.71875 71.875 27.9375 71.875 
Q 38.234375 71.875 44.234375 66.15625 
Q 50.25 60.453125 50.25 52 
Q 50.25 47.703125 48.484375 43.546875 
Q 46.734375 39.40625 42.65625 34.8125 
Q 38.578125 30.21875 29.109375 22.21875 
Q 21.1875 15.578125 18.9375 13.203125 
Q 16.703125 10.84375 15.234375 8.453125 
z
" id="ArialMT-50"/>
      </defs>
      <g style="fill:#262626;" transform="translate(55.492969 174.305598)scale(0.11 -0.11)">
       <use xlink:href="#ArialMT-49"/>
       <use x="55.615234" xlink:href="#ArialMT-50"/>
       <use x="111.230469" xlink:href="#ArialMT-46"/>
       <use x="139.013672" xlink:href="#ArialMT-53"/>
      </g>
     </g>
    </g>
    <g id="ytick_5">
     <g id="line2d_5">
      <path clip-path="url(#p772597dbee)" d="M 86.4 140.333017 
L 303.793548 140.333017 
" style="fill:none;stroke:#ffffff;stroke-linecap:round;"/>
     </g>
     <g id="text_5">
      <!-- 15.0 -->
      <g style="fill:#262626;" transform="translate(55.492969 144.269814)scale(0.11 -0.11)">
       <use xlink:href="#ArialMT-49"/>
       <use x="55.615234" xlink:href="#ArialMT-53"/>
       <use x="111.230469" xlink:href="#ArialMT-46"/>
       <use x="139.013672" xlink:href="#ArialMT-48"/>
      </g>
     </g>
    </g>
    <g id="ytick_6">
     <g id="line2d_6">
      <path clip-path="url(#p772597dbee)" d="M 86.4 110.297233 
L 303.793548 110.297233 
" style="fill:none;stroke:#ffffff;stroke-linecap:round;"/>
     </g>
     <g id="text_6">
      <!-- 17.5 -->
      <g style="fill:#262626;" transform="translate(55.492969 114.23403)scale(0.11 -0.11)">
       <use xlink:href="#ArialMT-49"/>
       <use x="55.615234" xlink:href="#ArialMT-55"/>
       <use x="111.230469" xlink:href="#ArialMT-46"/>
       <use x="139.013672" xlink:href="#ArialMT-53"/>
      </g>
     </g>
    </g>
    <g id="ytick_7">
     <g id="line2d_7">
      <path clip-path="url(#p772597dbee)" d="M 86.4 80.261448 
L 303.793548 80.261448 
" style="fill:none;stroke:#ffffff;stroke-linecap:round;"/>
     </g>
     <g id="text_7">
      <!-- 20.0 -->
      <g style="fill:#262626;" transform="translate(55.492969 84.198245)scale(0.11 -0.11)">
       <use xlink:href="#ArialMT-50"/>
       <use x="55.615234" xlink:href="#ArialMT-48"/>
       <use x="111.230469" xlink:href="#ArialMT-46"/>
       <use x="139.013672" xlink:href="#ArialMT-48"/>
      </g>
     </g>
    </g>
    <g id="text_8">
     <!-- Covered area per CS -->
     <defs>
      <path d="M 58.796875 25.09375 
L 68.265625 22.703125 
Q 65.28125 11.03125 57.546875 4.90625 
Q 49.8125 -1.21875 38.625 -1.21875 
Q 27.046875 -1.21875 19.796875 3.484375 
Q 12.546875 8.203125 8.765625 17.140625 
Q 4.984375 26.078125 4.984375 36.328125 
Q 4.984375 47.515625 9.25 55.828125 
Q 13.53125 64.15625 21.40625 68.46875 
Q 29.296875 72.796875 38.765625 72.796875 
Q 49.515625 72.796875 56.828125 67.328125 
Q 64.15625 61.859375 67.046875 51.953125 
L 57.71875 49.75 
Q 55.21875 57.5625 50.484375 61.125 
Q 45.75 64.703125 38.578125 64.703125 
Q 30.328125 64.703125 24.78125 60.734375 
Q 19.234375 56.78125 16.984375 50.109375 
Q 14.75 43.453125 14.75 36.375 
Q 14.75 27.25 17.40625 20.4375 
Q 20.0625 13.625 25.671875 10.25 
Q 31.296875 6.890625 37.84375 6.890625 
Q 45.796875 6.890625 51.3125 11.46875 
Q 56.84375 16.0625 58.796875 25.09375 
z
" id="ArialMT-67"/>
      <path d="M 3.328125 25.921875 
Q 3.328125 40.328125 11.328125 47.265625 
Q 18.015625 53.03125 27.640625 53.03125 
Q 38.328125 53.03125 45.109375 46.015625 
Q 51.90625 39.015625 51.90625 26.65625 
Q 51.90625 16.65625 48.90625 10.90625 
Q 45.90625 5.171875 40.15625 2 
Q 34.421875 -1.171875 27.640625 -1.171875 
Q 16.75 -1.171875 10.03125 5.8125 
Q 3.328125 12.796875 3.328125 25.921875 
z
M 12.359375 25.921875 
Q 12.359375 15.96875 16.703125 11.015625 
Q 21.046875 6.0625 27.640625 6.0625 
Q 34.1875 6.0625 38.53125 11.03125 
Q 42.875 16.015625 42.875 26.21875 
Q 42.875 35.84375 38.5 40.796875 
Q 34.125 45.75 27.640625 45.75 
Q 21.046875 45.75 16.703125 40.8125 
Q 12.359375 35.890625 12.359375 25.921875 
z
" id="ArialMT-111"/>
      <path d="M 21 0 
L 1.265625 51.859375 
L 10.546875 51.859375 
L 21.6875 20.796875 
Q 23.484375 15.765625 25 10.359375 
Q 26.171875 14.453125 28.265625 20.21875 
L 39.796875 51.859375 
L 48.828125 51.859375 
L 29.203125 0 
z
" id="ArialMT-118"/>
      <path d="M 42.09375 16.703125 
L 51.171875 15.578125 
Q 49.03125 7.625 43.21875 3.21875 
Q 37.40625 -1.171875 28.375 -1.171875 
Q 17 -1.171875 10.328125 5.828125 
Q 3.65625 12.84375 3.65625 25.484375 
Q 3.65625 38.578125 10.390625 45.796875 
Q 17.140625 53.03125 27.875 53.03125 
Q 38.28125 53.03125 44.875 45.953125 
Q 51.46875 38.875 51.46875 26.03125 
Q 51.46875 25.25 51.421875 23.6875 
L 12.75 23.6875 
Q 13.234375 15.140625 17.578125 10.59375 
Q 21.921875 6.0625 28.421875 6.0625 
Q 33.25 6.0625 36.671875 8.59375 
Q 40.09375 11.140625 42.09375 16.703125 
z
M 13.234375 30.90625 
L 42.1875 30.90625 
Q 41.609375 37.453125 38.875 40.71875 
Q 34.671875 45.796875 27.984375 45.796875 
Q 21.921875 45.796875 17.796875 41.75 
Q 13.671875 37.703125 13.234375 30.90625 
z
" id="ArialMT-101"/>
      <path d="M 6.5 0 
L 6.5 51.859375 
L 14.40625 51.859375 
L 14.40625 44 
Q 17.4375 49.515625 20 51.265625 
Q 22.5625 53.03125 25.640625 53.03125 
Q 30.078125 53.03125 34.671875 50.203125 
L 31.640625 42.046875 
Q 28.421875 43.953125 25.203125 43.953125 
Q 22.3125 43.953125 20.015625 42.21875 
Q 17.71875 40.484375 16.75 37.40625 
Q 15.28125 32.71875 15.28125 27.15625 
L 15.28125 0 
z
" id="ArialMT-114"/>
      <path d="M 40.234375 0 
L 40.234375 6.546875 
Q 35.296875 -1.171875 25.734375 -1.171875 
Q 19.53125 -1.171875 14.328125 2.25 
Q 9.125 5.671875 6.265625 11.796875 
Q 3.421875 17.921875 3.421875 25.875 
Q 3.421875 33.640625 6 39.96875 
Q 8.59375 46.296875 13.765625 49.65625 
Q 18.953125 53.03125 25.34375 53.03125 
Q 30.03125 53.03125 33.6875 51.046875 
Q 37.359375 49.078125 39.65625 45.90625 
L 39.65625 71.578125 
L 48.390625 71.578125 
L 48.390625 0 
z
M 12.453125 25.875 
Q 12.453125 15.921875 16.640625 10.984375 
Q 20.84375 6.0625 26.5625 6.0625 
Q 32.328125 6.0625 36.34375 10.765625 
Q 40.375 15.484375 40.375 25.140625 
Q 40.375 35.796875 36.265625 40.765625 
Q 32.171875 45.75 26.171875 45.75 
Q 20.3125 45.75 16.375 40.96875 
Q 12.453125 36.1875 12.453125 25.875 
z
" id="ArialMT-100"/>
      <path id="ArialMT-32"/>
      <path d="M 40.4375 6.390625 
Q 35.546875 2.25 31.03125 0.53125 
Q 26.515625 -1.171875 21.34375 -1.171875 
Q 12.796875 -1.171875 8.203125 3 
Q 3.609375 7.171875 3.609375 13.671875 
Q 3.609375 17.484375 5.34375 20.625 
Q 7.078125 23.78125 9.890625 25.6875 
Q 12.703125 27.59375 16.21875 28.5625 
Q 18.796875 29.25 24.03125 29.890625 
Q 34.671875 31.15625 39.703125 32.90625 
Q 39.75 34.71875 39.75 35.203125 
Q 39.75 40.578125 37.25 42.78125 
Q 33.890625 45.75 27.25 45.75 
Q 21.046875 45.75 18.09375 43.578125 
Q 15.140625 41.40625 13.71875 35.890625 
L 5.125 37.0625 
Q 6.296875 42.578125 8.984375 45.96875 
Q 11.671875 49.359375 16.75 51.1875 
Q 21.828125 53.03125 28.515625 53.03125 
Q 35.15625 53.03125 39.296875 51.46875 
Q 43.453125 49.90625 45.40625 47.53125 
Q 47.359375 45.171875 48.140625 41.546875 
Q 48.578125 39.3125 48.578125 33.453125 
L 48.578125 21.734375 
Q 48.578125 9.46875 49.140625 6.21875 
Q 49.703125 2.984375 51.375 0 
L 42.1875 0 
Q 40.828125 2.734375 40.4375 6.390625 
z
M 39.703125 26.03125 
Q 34.90625 24.078125 25.34375 22.703125 
Q 19.921875 21.921875 17.671875 20.9375 
Q 15.4375 19.96875 14.203125 18.09375 
Q 12.984375 16.21875 12.984375 13.921875 
Q 12.984375 10.40625 15.640625 8.0625 
Q 18.3125 5.71875 23.4375 5.71875 
Q 28.515625 5.71875 32.46875 7.9375 
Q 36.421875 10.15625 38.28125 14.015625 
Q 39.703125 17 39.703125 22.796875 
z
" id="ArialMT-97"/>
      <path d="M 6.59375 -19.875 
L 6.59375 51.859375 
L 14.59375 51.859375 
L 14.59375 45.125 
Q 17.4375 49.078125 21 51.046875 
Q 24.5625 53.03125 29.640625 53.03125 
Q 36.28125 53.03125 41.359375 49.609375 
Q 46.4375 46.1875 49.015625 39.953125 
Q 51.609375 33.734375 51.609375 26.3125 
Q 51.609375 18.359375 48.75 11.984375 
Q 45.90625 5.609375 40.453125 2.21875 
Q 35.015625 -1.171875 29 -1.171875 
Q 24.609375 -1.171875 21.109375 0.6875 
Q 17.625 2.546875 15.375 5.375 
L 15.375 -19.875 
z
M 14.546875 25.640625 
Q 14.546875 15.625 18.59375 10.84375 
Q 22.65625 6.0625 28.421875 6.0625 
Q 34.28125 6.0625 38.453125 11.015625 
Q 42.625 15.96875 42.625 26.375 
Q 42.625 36.28125 38.546875 41.203125 
Q 34.46875 46.140625 28.8125 46.140625 
Q 23.1875 46.140625 18.859375 40.890625 
Q 14.546875 35.640625 14.546875 25.640625 
z
" id="ArialMT-112"/>
      <path d="M 4.5 23 
L 13.421875 23.78125 
Q 14.0625 18.40625 16.375 14.96875 
Q 18.703125 11.53125 23.578125 9.40625 
Q 28.46875 7.28125 34.578125 7.28125 
Q 39.984375 7.28125 44.140625 8.890625 
Q 48.296875 10.5 50.3125 13.296875 
Q 52.34375 16.109375 52.34375 19.4375 
Q 52.34375 22.796875 50.390625 25.3125 
Q 48.4375 27.828125 43.953125 29.546875 
Q 41.0625 30.671875 31.203125 33.03125 
Q 21.34375 35.40625 17.390625 37.5 
Q 12.25 40.1875 9.734375 44.15625 
Q 7.234375 48.140625 7.234375 53.078125 
Q 7.234375 58.5 10.296875 63.203125 
Q 13.375 67.921875 19.28125 70.359375 
Q 25.203125 72.796875 32.421875 72.796875 
Q 40.375 72.796875 46.453125 70.234375 
Q 52.546875 67.671875 55.8125 62.6875 
Q 59.078125 57.71875 59.328125 51.421875 
L 50.25 50.734375 
Q 49.515625 57.515625 45.28125 60.984375 
Q 41.0625 64.453125 32.8125 64.453125 
Q 24.21875 64.453125 20.28125 61.296875 
Q 16.359375 58.15625 16.359375 53.71875 
Q 16.359375 49.859375 19.140625 47.359375 
Q 21.875 44.875 33.421875 42.265625 
Q 44.96875 39.65625 49.265625 37.703125 
Q 55.515625 34.8125 58.484375 30.390625 
Q 61.46875 25.984375 61.46875 20.21875 
Q 61.46875 14.5 58.203125 9.4375 
Q 54.9375 4.390625 48.796875 1.578125 
Q 42.671875 -1.21875 35.015625 -1.21875 
Q 25.296875 -1.21875 18.71875 1.609375 
Q 12.15625 4.4375 8.421875 10.125 
Q 4.6875 15.828125 4.5 23 
z
" id="ArialMT-83"/>
     </defs>
     <g style="fill:#262626;" transform="translate(49.107969 233.987172)rotate(-90)scale(0.12 -0.12)">
      <use xlink:href="#ArialMT-67"/>
      <use x="72.216797" xlink:href="#ArialMT-111"/>
      <use x="127.832031" xlink:href="#ArialMT-118"/>
      <use x="177.832031" xlink:href="#ArialMT-101"/>
      <use x="233.447266" xlink:href="#ArialMT-114"/>
      <use x="266.748047" xlink:href="#ArialMT-101"/>
      <use x="322.363281" xlink:href="#ArialMT-100"/>
      <use x="377.978516" xlink:href="#ArialMT-32"/>
      <use x="405.761719" xlink:href="#ArialMT-97"/>
      <use x="461.376953" xlink:href="#ArialMT-114"/>
      <use x="494.677734" xlink:href="#ArialMT-101"/>
      <use x="550.292969" xlink:href="#ArialMT-97"/>
      <use x="605.908203" xlink:href="#ArialMT-32"/>
      <use x="633.691406" xlink:href="#ArialMT-112"/>
      <use x="689.306641" xlink:href="#ArialMT-101"/>
      <use x="744.921875" xlink:href="#ArialMT-114"/>
      <use x="778.222656" xlink:href="#ArialMT-32"/>
      <use x="806.005859" xlink:href="#ArialMT-67"/>
      <use x="878.222656" xlink:href="#ArialMT-83"/>
     </g>
    </g>
   </g>
   <g id="PathCollection_1">
    <defs>
     <path d="M 0 1.691974 
C 0.448717 1.691974 0.879116 1.513697 1.196406 1.196406 
C 1.513697 0.879116 1.691974 0.448717 1.691974 0 
C 1.691974 -0.448717 1.513697 -0.879116 1.196406 -1.196406 
C 0.879116 -1.513697 0.448717 -1.691974 0 -1.691974 
C -0.448717 -1.691974 -0.879116 -1.513697 -1.196406 -1.196406 
C -1.513697 -0.879116 -1.691974 -0.448717 -1.691974 0 
C -1.691974 0.448717 -1.513697 0.879116 -1.196406 1.196406 
C -0.879116 1.513697 -0.448717 1.691974 0 1.691974 
z
" id="m7bd9ff6ba2" style="stroke:#4c72b0;stroke-width:2.025;"/>
    </defs>
    <g clip-path="url(#p772597dbee)">
     <use style="fill:#4c72b0;stroke:#4c72b0;stroke-width:2.025;" x="101.617548" xlink:href="#m7bd9ff6ba2" y="270.831348"/>
     <use style="fill:#4c72b0;stroke:#4c72b0;stroke-width:2.025;" x="145.096258" xlink:href="#m7bd9ff6ba2" y="247.260408"/>
     <use style="fill:#4c72b0;stroke:#4c72b0;stroke-width:2.025;" x="188.574968" xlink:href="#m7bd9ff6ba2" y="233.443948"/>
     <use style="fill:#4c72b0;stroke:#4c72b0;stroke-width:2.025;" x="232.053677" xlink:href="#m7bd9ff6ba2" y="221.429634"/>
     <use style="fill:#4c72b0;stroke:#4c72b0;stroke-width:2.025;" x="275.532387" xlink:href="#m7bd9ff6ba2" y="220.428441"/>
    </g>
   </g>
   <g id="line2d_8">
    <path clip-path="url(#p772597dbee)" d="M 101.617548 272.376045 
L 101.617548 269.172228 
" style="fill:none;stroke:#4c72b0;stroke-linecap:round;stroke-width:2.7;"/>
   </g>
   <g id="line2d_9">
    <path clip-path="url(#p772597dbee)" d="M 145.096258 249.077573 
L 145.096258 245.458261 
" style="fill:none;stroke:#4c72b0;stroke-linecap:round;stroke-width:2.7;"/>
   </g>
   <g id="line2d_10">
    <path clip-path="url(#p772597dbee)" d="M 188.574968 238.449912 
L 188.574968 228.437984 
" style="fill:none;stroke:#4c72b0;stroke-linecap:round;stroke-width:2.7;"/>
   </g>
   <g id="line2d_11">
    <path clip-path="url(#p772597dbee)" d="M 232.053677 223.43202 
L 232.053677 220.428441 
" style="fill:none;stroke:#4c72b0;stroke-linecap:round;stroke-width:2.7;"/>
   </g>
   <g id="line2d_12">
    <path clip-path="url(#p772597dbee)" d="M 275.532387 220.428441 
L 275.532387 220.428441 
" style="fill:none;stroke:#4c72b0;stroke-linecap:round;stroke-width:2.7;"/>
   </g>
   <g id="PathCollection_2">
    <defs>
     <path d="M 0 1.691974 
C 0.448717 1.691974 0.879116 1.513697 1.196406 1.196406 
C 1.513697 0.879116 1.691974 0.448717 1.691974 0 
C 1.691974 -0.448717 1.513697 -0.879116 1.196406 -1.196406 
C 0.879116 -1.513697 0.448717 -1.691974 0 -1.691974 
C -0.448717 -1.691974 -0.879116 -1.513697 -1.196406 -1.196406 
C -1.513697 -0.879116 -1.691974 -0.448717 -1.691974 0 
C -1.691974 0.448717 -1.513697 0.879116 -1.196406 1.196406 
C -0.879116 1.513697 -0.448717 1.691974 0 1.691974 
z
" id="m7fff3f16ae" style="stroke:#dd8452;stroke-width:2.025;"/>
    </defs>
    <g clip-path="url(#p772597dbee)">
     <use style="fill:#dd8452;stroke:#dd8452;stroke-width:2.025;" x="108.139355" xlink:href="#m7fff3f16ae" y="274.206798"/>
     <use style="fill:#dd8452;stroke:#dd8452;stroke-width:2.025;" x="151.618065" xlink:href="#m7fff3f16ae" y="254.468997"/>
     <use style="fill:#dd8452;stroke:#dd8452;stroke-width:2.025;" x="195.096774" xlink:href="#m7fff3f16ae" y="235.446333"/>
     <use style="fill:#dd8452;stroke:#dd8452;stroke-width:2.025;" x="238.575484" xlink:href="#m7fff3f16ae" y="220.428441"/>
     <use style="fill:#dd8452;stroke:#dd8452;stroke-width:2.025;" x="282.054194" xlink:href="#m7fff3f16ae" y="220.428441"/>
    </g>
   </g>
   <g id="line2d_13">
    <path clip-path="url(#p772597dbee)" d="M 108.139355 275.637073 
L 108.139355 272.776522 
" style="fill:none;stroke:#dd8452;stroke-linecap:round;stroke-width:2.7;"/>
   </g>
   <g id="line2d_14">
    <path clip-path="url(#p772597dbee)" d="M 151.618065 257.472575 
L 151.618065 252.051116 
" style="fill:none;stroke:#dd8452;stroke-linecap:round;stroke-width:2.7;"/>
   </g>
   <g id="line2d_15">
    <path clip-path="url(#p772597dbee)" d="M 195.096774 239.476134 
L 195.096774 230.440369 
" style="fill:none;stroke:#dd8452;stroke-linecap:round;stroke-width:2.7;"/>
   </g>
   <g id="line2d_16">
    <path clip-path="url(#p772597dbee)" d="M 238.575484 220.428441 
L 238.575484 220.428441 
" style="fill:none;stroke:#dd8452;stroke-linecap:round;stroke-width:2.7;"/>
   </g>
   <g id="line2d_17">
    <path clip-path="url(#p772597dbee)" d="M 282.054194 220.428441 
L 282.054194 220.428441 
" style="fill:none;stroke:#dd8452;stroke-linecap:round;stroke-width:2.7;"/>
   </g>
   <g id="patch_3">
    <path d="M 86.4 285.47122 
L 86.4 69.12 
" style="fill:none;stroke:#ffffff;stroke-linecap:square;stroke-linejoin:miter;stroke-width:1.25;"/>
   </g>
   <g id="patch_4">
    <path d="M 303.793548 285.47122 
L 303.793548 69.12 
" style="fill:none;stroke:#ffffff;stroke-linecap:square;stroke-linejoin:miter;stroke-width:1.25;"/>
   </g>
   <g id="patch_5">
    <path d="M 86.4 285.47122 
L 303.793548 285.47122 
" style="fill:none;stroke:#ffffff;stroke-linecap:square;stroke-linejoin:miter;stroke-width:1.25;"/>
   </g>
   <g id="patch_6">
    <path d="M 86.4 69.12 
L 303.793548 69.12 
" style="fill:none;stroke:#ffffff;stroke-linecap:square;stroke-linejoin:miter;stroke-width:1.25;"/>
   </g>
   <g id="PathCollection_3">
    <defs>
     <path d="M 0 1.691974 
C 0.448717 1.691974 0.879116 1.513697 1.196406 1.196406 
C 1.513697 0.879116 1.691974 0.448717 1.691974 0 
C 1.691974 -0.448717 1.513697 -0.879116 1.196406 -1.196406 
C 0.879116 -1.513697 0.448717 -1.691974 0 -1.691974 
C -0.448717 -1.691974 -0.879116 -1.513697 -1.196406 -1.196406 
C -1.513697 -0.879116 -1.691974 -0.448717 -1.691974 0 
C -1.691974 0.448717 -1.513697 0.879116 -1.196406 1.196406 
C -0.879116 1.513697 -0.448717 1.691974 0 1.691974 
z
" id="mcb2f54baea" style="stroke:#55a868;stroke-width:2.025;"/>
    </defs>
    <g clip-path="url(#p772597dbee)">
     <use style="fill:#55a868;stroke:#55a868;stroke-width:2.025;" x="114.661161" xlink:href="#mcb2f54baea" y="269.85876"/>
     <use style="fill:#55a868;stroke:#55a868;stroke-width:2.025;" x="158.139871" xlink:href="#mcb2f54baea" y="248.46184"/>
     <use style="fill:#55a868;stroke:#55a868;stroke-width:2.025;" x="201.618581" xlink:href="#mcb2f54baea" y="226.435598"/>
     <use style="fill:#55a868;stroke:#55a868;stroke-width:2.025;" x="245.09729" xlink:href="#mcb2f54baea" y="220.428441"/>
     <use style="fill:#55a868;stroke:#55a868;stroke-width:2.025;" x="288.576" xlink:href="#mcb2f54baea" y="220.428441"/>
    </g>
   </g>
   <g id="line2d_18">
    <path clip-path="url(#p772597dbee)" d="M 114.661161 271.346247 
L 114.661161 268.085219 
" style="fill:none;stroke:#55a868;stroke-linecap:round;stroke-width:2.7;"/>
   </g>
   <g id="line2d_19">
    <path clip-path="url(#p772597dbee)" d="M 158.139871 250.864703 
L 158.139871 246.058977 
" style="fill:none;stroke:#55a868;stroke-linecap:round;stroke-width:2.7;"/>
   </g>
   <g id="line2d_20">
    <path clip-path="url(#p772597dbee)" d="M 201.618581 231.441562 
L 201.618581 222.430827 
" style="fill:none;stroke:#55a868;stroke-linecap:round;stroke-width:2.7;"/>
   </g>
   <g id="line2d_21">
    <path clip-path="url(#p772597dbee)" d="M 245.09729 220.428441 
L 245.09729 220.428441 
" style="fill:none;stroke:#55a868;stroke-linecap:round;stroke-width:2.7;"/>
   </g>
   <g id="line2d_22">
    <path clip-path="url(#p772597dbee)" d="M 288.576 220.428441 
L 288.576 220.428441 
" style="fill:none;stroke:#55a868;stroke-linecap:round;stroke-width:2.7;"/>
   </g>
   <g id="text_9">
    <!-- Field with $25 km^{2}$ area -->
    <defs>
     <path d="M 8.203125 0 
L 8.203125 71.578125 
L 56.5 71.578125 
L 56.5 63.140625 
L 17.671875 63.140625 
L 17.671875 40.96875 
L 51.265625 40.96875 
L 51.265625 32.515625 
L 17.671875 32.515625 
L 17.671875 0 
z
" id="ArialMT-70"/>
     <path d="M 6.640625 61.46875 
L 6.640625 71.578125 
L 15.4375 71.578125 
L 15.4375 61.46875 
z
M 6.640625 0 
L 6.640625 51.859375 
L 15.4375 51.859375 
L 15.4375 0 
z
" id="ArialMT-105"/>
     <path d="M 6.390625 0 
L 6.390625 71.578125 
L 15.1875 71.578125 
L 15.1875 0 
z
" id="ArialMT-108"/>
     <path d="M 16.15625 0 
L 0.296875 51.859375 
L 9.375 51.859375 
L 17.625 21.921875 
L 20.703125 10.796875 
Q 20.90625 11.625 23.390625 21.484375 
L 31.640625 51.859375 
L 40.671875 51.859375 
L 48.4375 21.78125 
L 51.03125 11.859375 
L 54 21.875 
L 62.890625 51.859375 
L 71.4375 51.859375 
L 55.21875 0 
L 46.09375 0 
L 37.84375 31.0625 
L 35.84375 39.890625 
L 25.34375 0 
z
" id="ArialMT-119"/>
     <path d="M 25.78125 7.859375 
L 27.046875 0.09375 
Q 23.34375 -0.6875 20.40625 -0.6875 
Q 15.625 -0.6875 12.984375 0.828125 
Q 10.359375 2.34375 9.28125 4.8125 
Q 8.203125 7.28125 8.203125 15.1875 
L 8.203125 45.015625 
L 1.765625 45.015625 
L 1.765625 51.859375 
L 8.203125 51.859375 
L 8.203125 64.703125 
L 16.9375 69.96875 
L 16.9375 51.859375 
L 25.78125 51.859375 
L 25.78125 45.015625 
L 16.9375 45.015625 
L 16.9375 14.703125 
Q 16.9375 10.9375 17.40625 9.859375 
Q 17.875 8.796875 18.921875 8.15625 
Q 19.96875 7.515625 21.921875 7.515625 
Q 23.390625 7.515625 25.78125 7.859375 
z
" id="ArialMT-116"/>
     <path d="M 6.59375 0 
L 6.59375 71.578125 
L 15.375 71.578125 
L 15.375 45.90625 
Q 21.53125 53.03125 30.90625 53.03125 
Q 36.671875 53.03125 40.921875 50.75 
Q 45.171875 48.484375 47 44.484375 
Q 48.828125 40.484375 48.828125 32.859375 
L 48.828125 0 
L 40.046875 0 
L 40.046875 32.859375 
Q 40.046875 39.453125 37.1875 42.453125 
Q 34.328125 45.453125 29.109375 45.453125 
Q 25.203125 45.453125 21.75 43.421875 
Q 18.3125 41.40625 16.84375 37.9375 
Q 15.375 34.46875 15.375 28.375 
L 15.375 0 
z
" id="ArialMT-104"/>
     <path d="M 19.1875 8.296875 
L 53.609375 8.296875 
L 53.609375 0 
L 7.328125 0 
L 7.328125 8.296875 
Q 12.9375 14.109375 22.625 23.890625 
Q 32.328125 33.6875 34.8125 36.53125 
Q 39.546875 41.84375 41.421875 45.53125 
Q 43.3125 49.21875 43.3125 52.78125 
Q 43.3125 58.59375 39.234375 62.25 
Q 35.15625 65.921875 28.609375 65.921875 
Q 23.96875 65.921875 18.8125 64.3125 
Q 13.671875 62.703125 7.8125 59.421875 
L 7.8125 69.390625 
Q 13.765625 71.78125 18.9375 73 
Q 24.125 74.21875 28.421875 74.21875 
Q 39.75 74.21875 46.484375 68.546875 
Q 53.21875 62.890625 53.21875 53.421875 
Q 53.21875 48.921875 51.53125 44.890625 
Q 49.859375 40.875 45.40625 35.40625 
Q 44.1875 33.984375 37.640625 27.21875 
Q 31.109375 20.453125 19.1875 8.296875 
z
" id="DejaVuSans-50"/>
     <path d="M 10.796875 72.90625 
L 49.515625 72.90625 
L 49.515625 64.59375 
L 19.828125 64.59375 
L 19.828125 46.734375 
Q 21.96875 47.46875 24.109375 47.828125 
Q 26.265625 48.1875 28.421875 48.1875 
Q 40.625 48.1875 47.75 41.5 
Q 54.890625 34.8125 54.890625 23.390625 
Q 54.890625 11.625 47.5625 5.09375 
Q 40.234375 -1.421875 26.90625 -1.421875 
Q 22.3125 -1.421875 17.546875 -0.640625 
Q 12.796875 0.140625 7.71875 1.703125 
L 7.71875 11.625 
Q 12.109375 9.234375 16.796875 8.0625 
Q 21.484375 6.890625 26.703125 6.890625 
Q 35.15625 6.890625 40.078125 11.328125 
Q 45.015625 15.765625 45.015625 23.390625 
Q 45.015625 31 40.078125 35.4375 
Q 35.15625 39.890625 26.703125 39.890625 
Q 22.75 39.890625 18.8125 39.015625 
Q 14.890625 38.140625 10.796875 36.28125 
z
" id="DejaVuSans-53"/>
     <path d="M 18.3125 75.984375 
L 27.296875 75.984375 
L 18.703125 31.6875 
L 49.515625 54.6875 
L 61.1875 54.6875 
L 26.8125 28.515625 
L 51.90625 0 
L 41.015625 0 
L 17.671875 26.703125 
L 12.5 0 
L 3.515625 0 
z
" id="DejaVuSans-Oblique-107"/>
     <path d="M 89.796875 33.015625 
L 83.40625 0 
L 74.421875 0 
L 80.71875 32.71875 
Q 81.109375 34.8125 81.296875 36.328125 
Q 81.5 37.84375 81.5 38.921875 
Q 81.5 43.3125 79.046875 45.75 
Q 76.609375 48.1875 72.21875 48.1875 
Q 65.671875 48.1875 60.546875 43.28125 
Q 55.421875 38.375 53.90625 30.515625 
L 47.90625 0 
L 38.921875 0 
L 45.3125 32.71875 
Q 45.703125 34.515625 45.890625 36.046875 
Q 46.09375 37.59375 46.09375 38.8125 
Q 46.09375 43.265625 43.65625 45.71875 
Q 41.21875 48.1875 36.921875 48.1875 
Q 30.28125 48.1875 25.140625 43.28125 
Q 20.015625 38.375 18.5 30.515625 
L 12.5 0 
L 3.515625 0 
L 14.203125 54.6875 
L 23.1875 54.6875 
L 21.484375 46.1875 
Q 25.140625 50.984375 30.046875 53.484375 
Q 34.96875 56 40.578125 56 
Q 46.53125 56 50.359375 52.875 
Q 54.203125 49.75 54.984375 44.1875 
Q 59.078125 49.953125 64.46875 52.96875 
Q 69.875 56 75.875 56 
Q 82.90625 56 86.734375 51.953125 
Q 90.578125 47.90625 90.578125 40.484375 
Q 90.578125 38.875 90.375 36.9375 
Q 90.1875 35.015625 89.796875 33.015625 
z
" id="DejaVuSans-Oblique-109"/>
    </defs>
    <g style="fill:#262626;" transform="translate(134.316774 63.12)scale(0.12 -0.12)">
     <use transform="translate(0 0.765625)" xlink:href="#ArialMT-70"/>
     <use transform="translate(61.083984 0.765625)" xlink:href="#ArialMT-105"/>
     <use transform="translate(83.300781 0.765625)" xlink:href="#ArialMT-101"/>
     <use transform="translate(138.916016 0.765625)" xlink:href="#ArialMT-108"/>
     <use transform="translate(161.132812 0.765625)" xlink:href="#ArialMT-100"/>
     <use transform="translate(216.748047 0.765625)" xlink:href="#ArialMT-32"/>
     <use transform="translate(244.53125 0.765625)" xlink:href="#ArialMT-119"/>
     <use transform="translate(316.748047 0.765625)" xlink:href="#ArialMT-105"/>
     <use transform="translate(338.964844 0.765625)" xlink:href="#ArialMT-116"/>
     <use transform="translate(366.748047 0.765625)" xlink:href="#ArialMT-104"/>
     <use transform="translate(422.363281 0.765625)" xlink:href="#ArialMT-32"/>
     <use transform="translate(450.146484 0.765625)" xlink:href="#DejaVuSans-50"/>
     <use transform="translate(513.769531 0.765625)" xlink:href="#DejaVuSans-53"/>
     <use transform="translate(577.392578 0.765625)" xlink:href="#DejaVuSans-Oblique-107"/>
     <use transform="translate(635.302734 0.765625)" xlink:href="#DejaVuSans-Oblique-109"/>
     <use transform="translate(737.36474 39.046875)scale(0.7)" xlink:href="#DejaVuSans-50"/>
     <use transform="translate(784.635247 0.765625)" xlink:href="#ArialMT-32"/>
     <use transform="translate(812.418451 0.765625)" xlink:href="#ArialMT-97"/>
     <use transform="translate(868.033685 0.765625)" xlink:href="#ArialMT-114"/>
     <use transform="translate(901.334466 0.765625)" xlink:href="#ArialMT-101"/>
     <use transform="translate(956.949701 0.765625)" xlink:href="#ArialMT-97"/>
    </g>
   </g>
  </g>
  <g id="axes_2">
   <g id="patch_7">
    <path d="M 314.663226 285.47122 
L 532.056774 285.47122 
L 532.056774 69.12 
L 314.663226 69.12 
z
" style="fill:#eaeaf2;"/>
   </g>
   <g id="matplotlib.axis_3">
    <g id="xtick_6"/>
    <g id="xtick_7"/>
    <g id="xtick_8"/>
    <g id="xtick_9"/>
    <g id="xtick_10"/>
   </g>
   <g id="matplotlib.axis_4">
    <g id="ytick_8">
     <g id="line2d_23">
      <path clip-path="url(#p7e93a0f776)" d="M 314.663226 260.476154 
L 532.056774 260.476154 
" style="fill:none;stroke:#ffffff;stroke-linecap:round;"/>
     </g>
    </g>
    <g id="ytick_9">
     <g id="line2d_24">
      <path clip-path="url(#p7e93a0f776)" d="M 314.663226 230.440369 
L 532.056774 230.440369 
" style="fill:none;stroke:#ffffff;stroke-linecap:round;"/>
     </g>
    </g>
    <g id="ytick_10">
     <g id="line2d_25">
      <path clip-path="url(#p7e93a0f776)" d="M 314.663226 200.404585 
L 532.056774 200.404585 
" style="fill:none;stroke:#ffffff;stroke-linecap:round;"/>
     </g>
    </g>
    <g id="ytick_11">
     <g id="line2d_26">
      <path clip-path="url(#p7e93a0f776)" d="M 314.663226 170.368801 
L 532.056774 170.368801 
" style="fill:none;stroke:#ffffff;stroke-linecap:round;"/>
     </g>
    </g>
    <g id="ytick_12">
     <g id="line2d_27">
      <path clip-path="url(#p7e93a0f776)" d="M 314.663226 140.333017 
L 532.056774 140.333017 
" style="fill:none;stroke:#ffffff;stroke-linecap:round;"/>
     </g>
    </g>
    <g id="ytick_13">
     <g id="line2d_28">
      <path clip-path="url(#p7e93a0f776)" d="M 314.663226 110.297233 
L 532.056774 110.297233 
" style="fill:none;stroke:#ffffff;stroke-linecap:round;"/>
     </g>
    </g>
    <g id="ytick_14">
     <g id="line2d_29">
      <path clip-path="url(#p7e93a0f776)" d="M 314.663226 80.261448 
L 532.056774 80.261448 
" style="fill:none;stroke:#ffffff;stroke-linecap:round;"/>
     </g>
    </g>
   </g>
   <g id="PathCollection_4">
    <g clip-path="url(#p7e93a0f776)">
     <use style="fill:#4c72b0;stroke:#4c72b0;stroke-width:2.025;" x="329.880774" xlink:href="#m7bd9ff6ba2" y="257.539321"/>
     <use style="fill:#4c72b0;stroke:#4c72b0;stroke-width:2.025;" x="373.359484" xlink:href="#m7bd9ff6ba2" y="232.299727"/>
     <use style="fill:#4c72b0;stroke:#4c72b0;stroke-width:2.025;" x="416.838194" xlink:href="#m7bd9ff6ba2" y="200.404585"/>
     <use style="fill:#4c72b0;stroke:#4c72b0;stroke-width:2.025;" x="460.316903" xlink:href="#m7bd9ff6ba2" y="170.368801"/>
     <use style="fill:#4c72b0;stroke:#4c72b0;stroke-width:2.025;" x="503.795613" xlink:href="#m7bd9ff6ba2" y="164.361644"/>
    </g>
   </g>
   <g id="line2d_30">
    <path clip-path="url(#p7e93a0f776)" d="M 329.880774 258.874245 
L 329.880774 256.204398 
" style="fill:none;stroke:#4c72b0;stroke-linecap:round;stroke-width:2.7;"/>
   </g>
   <g id="line2d_31">
    <path clip-path="url(#p7e93a0f776)" d="M 373.359484 234.588168 
L 373.359484 230.007711 
" style="fill:none;stroke:#4c72b0;stroke-linecap:round;stroke-width:2.7;"/>
   </g>
   <g id="line2d_32">
    <path clip-path="url(#p7e93a0f776)" d="M 416.838194 200.404585 
L 416.838194 200.404585 
" style="fill:none;stroke:#4c72b0;stroke-linecap:round;stroke-width:2.7;"/>
   </g>
   <g id="line2d_33">
    <path clip-path="url(#p7e93a0f776)" d="M 460.316903 170.368801 
L 460.316903 170.368801 
" style="fill:none;stroke:#4c72b0;stroke-linecap:round;stroke-width:2.7;"/>
   </g>
   <g id="line2d_34">
    <path clip-path="url(#p7e93a0f776)" d="M 503.795613 170.368801 
L 503.795613 158.354487 
" style="fill:none;stroke:#4c72b0;stroke-linecap:round;stroke-width:2.7;"/>
   </g>
   <g id="PathCollection_5">
    <g clip-path="url(#p7e93a0f776)">
     <use style="fill:#dd8452;stroke:#dd8452;stroke-width:2.025;" x="336.402581" xlink:href="#m7fff3f16ae" y="261.252836"/>
     <use style="fill:#dd8452;stroke:#dd8452;stroke-width:2.025;" x="379.88129" xlink:href="#m7fff3f16ae" y="235.589361"/>
     <use style="fill:#dd8452;stroke:#dd8452;stroke-width:2.025;" x="423.36" xlink:href="#m7fff3f16ae" y="202.006494"/>
     <use style="fill:#dd8452;stroke:#dd8452;stroke-width:2.025;" x="466.83871" xlink:href="#m7fff3f16ae" y="170.368801"/>
     <use style="fill:#dd8452;stroke:#dd8452;stroke-width:2.025;" x="510.317419" xlink:href="#m7fff3f16ae" y="170.368801"/>
    </g>
   </g>
   <g id="line2d_35">
    <path clip-path="url(#p7e93a0f776)" d="M 336.402581 262.442132 
L 336.402581 260.062327 
" style="fill:none;stroke:#dd8452;stroke-linecap:round;stroke-width:2.7;"/>
   </g>
   <g id="line2d_36">
    <path clip-path="url(#p7e93a0f776)" d="M 379.88129 236.876609 
L 379.88129 234.731196 
" style="fill:none;stroke:#dd8452;stroke-linecap:round;stroke-width:2.7;"/>
   </g>
   <g id="line2d_37">
    <path clip-path="url(#p7e93a0f776)" d="M 423.36 204.409356 
L 423.36 200.404585 
" style="fill:none;stroke:#dd8452;stroke-linecap:round;stroke-width:2.7;"/>
   </g>
   <g id="line2d_38">
    <path clip-path="url(#p7e93a0f776)" d="M 466.83871 170.368801 
L 466.83871 170.368801 
" style="fill:none;stroke:#dd8452;stroke-linecap:round;stroke-width:2.7;"/>
   </g>
   <g id="line2d_39">
    <path clip-path="url(#p7e93a0f776)" d="M 510.317419 170.368801 
L 510.317419 170.368801 
" style="fill:none;stroke:#dd8452;stroke-linecap:round;stroke-width:2.7;"/>
   </g>
   <g id="patch_8">
    <path d="M 314.663226 285.47122 
L 314.663226 69.12 
" style="fill:none;stroke:#ffffff;stroke-linecap:square;stroke-linejoin:miter;stroke-width:1.25;"/>
   </g>
   <g id="patch_9">
    <path d="M 532.056774 285.47122 
L 532.056774 69.12 
" style="fill:none;stroke:#ffffff;stroke-linecap:square;stroke-linejoin:miter;stroke-width:1.25;"/>
   </g>
   <g id="patch_10">
    <path d="M 314.663226 285.47122 
L 532.056774 285.47122 
" style="fill:none;stroke:#ffffff;stroke-linecap:square;stroke-linejoin:miter;stroke-width:1.25;"/>
   </g>
   <g id="patch_11">
    <path d="M 314.663226 69.12 
L 532.056774 69.12 
" style="fill:none;stroke:#ffffff;stroke-linecap:square;stroke-linejoin:miter;stroke-width:1.25;"/>
   </g>
   <g id="PathCollection_6">
    <g clip-path="url(#p7e93a0f776)">
     <use style="fill:#55a868;stroke:#55a868;stroke-width:2.025;" x="342.924387" xlink:href="#mcb2f54baea" y="257.757763"/>
     <use style="fill:#55a868;stroke:#55a868;stroke-width:2.025;" x="386.403097" xlink:href="#mcb2f54baea" y="226.149543"/>
     <use style="fill:#55a868;stroke:#55a868;stroke-width:2.025;" x="429.881806" xlink:href="#mcb2f54baea" y="200.404585"/>
     <use style="fill:#55a868;stroke:#55a868;stroke-width:2.025;" x="473.360516" xlink:href="#mcb2f54baea" y="170.368801"/>
     <use style="fill:#55a868;stroke:#55a868;stroke-width:2.025;" x="516.839226" xlink:href="#mcb2f54baea" y="130.321089"/>
    </g>
   </g>
   <g id="line2d_40">
    <path clip-path="url(#p7e93a0f776)" d="M 342.924387 259.262586 
L 342.924387 256.204398 
" style="fill:none;stroke:#55a868;stroke-linecap:round;stroke-width:2.7;"/>
   </g>
   <g id="line2d_41">
    <path clip-path="url(#p7e93a0f776)" d="M 386.403097 229.010094 
L 386.403097 223.288992 
" style="fill:none;stroke:#55a868;stroke-linecap:round;stroke-width:2.7;"/>
   </g>
   <g id="line2d_42">
    <path clip-path="url(#p7e93a0f776)" d="M 429.881806 200.404585 
L 429.881806 200.404585 
" style="fill:none;stroke:#55a868;stroke-linecap:round;stroke-width:2.7;"/>
   </g>
   <g id="line2d_43">
    <path clip-path="url(#p7e93a0f776)" d="M 473.360516 170.368801 
L 473.360516 170.368801 
" style="fill:none;stroke:#55a868;stroke-linecap:round;stroke-width:2.7;"/>
   </g>
   <g id="line2d_44">
    <path clip-path="url(#p7e93a0f776)" d="M 516.839226 138.330631 
L 516.839226 124.263872 
" style="fill:none;stroke:#55a868;stroke-linecap:round;stroke-width:2.7;"/>
   </g>
   <g id="text_10">
    <!-- Field with $50 km^{2}$ area -->
    <defs>
     <path d="M 31.78125 66.40625 
Q 24.171875 66.40625 20.328125 58.90625 
Q 16.5 51.421875 16.5 36.375 
Q 16.5 21.390625 20.328125 13.890625 
Q 24.171875 6.390625 31.78125 6.390625 
Q 39.453125 6.390625 43.28125 13.890625 
Q 47.125 21.390625 47.125 36.375 
Q 47.125 51.421875 43.28125 58.90625 
Q 39.453125 66.40625 31.78125 66.40625 
z
M 31.78125 74.21875 
Q 44.046875 74.21875 50.515625 64.515625 
Q 56.984375 54.828125 56.984375 36.375 
Q 56.984375 17.96875 50.515625 8.265625 
Q 44.046875 -1.421875 31.78125 -1.421875 
Q 19.53125 -1.421875 13.0625 8.265625 
Q 6.59375 17.96875 6.59375 36.375 
Q 6.59375 54.828125 13.0625 64.515625 
Q 19.53125 74.21875 31.78125 74.21875 
z
" id="DejaVuSans-48"/>
    </defs>
    <g style="fill:#262626;" transform="translate(362.58 63.12)scale(0.12 -0.12)">
     <use transform="translate(0 0.765625)" xlink:href="#ArialMT-70"/>
     <use transform="translate(61.083984 0.765625)" xlink:href="#ArialMT-105"/>
     <use transform="translate(83.300781 0.765625)" xlink:href="#ArialMT-101"/>
     <use transform="translate(138.916016 0.765625)" xlink:href="#ArialMT-108"/>
     <use transform="translate(161.132812 0.765625)" xlink:href="#ArialMT-100"/>
     <use transform="translate(216.748047 0.765625)" xlink:href="#ArialMT-32"/>
     <use transform="translate(244.53125 0.765625)" xlink:href="#ArialMT-119"/>
     <use transform="translate(316.748047 0.765625)" xlink:href="#ArialMT-105"/>
     <use transform="translate(338.964844 0.765625)" xlink:href="#ArialMT-116"/>
     <use transform="translate(366.748047 0.765625)" xlink:href="#ArialMT-104"/>
     <use transform="translate(422.363281 0.765625)" xlink:href="#ArialMT-32"/>
     <use transform="translate(450.146484 0.765625)" xlink:href="#DejaVuSans-53"/>
     <use transform="translate(513.769531 0.765625)" xlink:href="#DejaVuSans-48"/>
     <use transform="translate(577.392578 0.765625)" xlink:href="#DejaVuSans-Oblique-107"/>
     <use transform="translate(635.302734 0.765625)" xlink:href="#DejaVuSans-Oblique-109"/>
     <use transform="translate(737.36474 39.046875)scale(0.7)" xlink:href="#DejaVuSans-50"/>
     <use transform="translate(784.635247 0.765625)" xlink:href="#ArialMT-32"/>
     <use transform="translate(812.418451 0.765625)" xlink:href="#ArialMT-97"/>
     <use transform="translate(868.033685 0.765625)" xlink:href="#ArialMT-114"/>
     <use transform="translate(901.334466 0.765625)" xlink:href="#ArialMT-101"/>
     <use transform="translate(956.949701 0.765625)" xlink:href="#ArialMT-97"/>
    </g>
   </g>
  </g>
  <g id="axes_3">
   <g id="patch_12">
    <path d="M 542.926452 285.47122 
L 760.32 285.47122 
L 760.32 69.12 
L 542.926452 69.12 
z
" style="fill:#eaeaf2;"/>
   </g>
   <g id="matplotlib.axis_5">
    <g id="xtick_11"/>
    <g id="xtick_12"/>
    <g id="xtick_13"/>
    <g id="xtick_14"/>
    <g id="xtick_15"/>
   </g>
   <g id="matplotlib.axis_6">
    <g id="ytick_15">
     <g id="line2d_45">
      <path clip-path="url(#p0621c350f4)" d="M 542.926452 260.476154 
L 760.32 260.476154 
" style="fill:none;stroke:#ffffff;stroke-linecap:round;"/>
     </g>
    </g>
    <g id="ytick_16">
     <g id="line2d_46">
      <path clip-path="url(#p0621c350f4)" d="M 542.926452 230.440369 
L 760.32 230.440369 
" style="fill:none;stroke:#ffffff;stroke-linecap:round;"/>
     </g>
    </g>
    <g id="ytick_17">
     <g id="line2d_47">
      <path clip-path="url(#p0621c350f4)" d="M 542.926452 200.404585 
L 760.32 200.404585 
" style="fill:none;stroke:#ffffff;stroke-linecap:round;"/>
     </g>
    </g>
    <g id="ytick_18">
     <g id="line2d_48">
      <path clip-path="url(#p0621c350f4)" d="M 542.926452 170.368801 
L 760.32 170.368801 
" style="fill:none;stroke:#ffffff;stroke-linecap:round;"/>
     </g>
    </g>
    <g id="ytick_19">
     <g id="line2d_49">
      <path clip-path="url(#p0621c350f4)" d="M 542.926452 140.333017 
L 760.32 140.333017 
" style="fill:none;stroke:#ffffff;stroke-linecap:round;"/>
     </g>
    </g>
    <g id="ytick_20">
     <g id="line2d_50">
      <path clip-path="url(#p0621c350f4)" d="M 542.926452 110.297233 
L 760.32 110.297233 
" style="fill:none;stroke:#ffffff;stroke-linecap:round;"/>
     </g>
    </g>
    <g id="ytick_21">
     <g id="line2d_51">
      <path clip-path="url(#p0621c350f4)" d="M 542.926452 80.261448 
L 760.32 80.261448 
" style="fill:none;stroke:#ffffff;stroke-linecap:round;"/>
     </g>
    </g>
   </g>
   <g id="PathCollection_7">
    <g clip-path="url(#p0621c350f4)">
     <use style="fill:#4c72b0;stroke:#4c72b0;stroke-width:2.025;" x="558.144" xlink:href="#m7bd9ff6ba2" y="248.756308"/>
     <use style="fill:#4c72b0;stroke:#4c72b0;stroke-width:2.025;" x="601.62271" xlink:href="#m7bd9ff6ba2" y="211.035432"/>
     <use style="fill:#4c72b0;stroke:#4c72b0;stroke-width:2.025;" x="645.101419" xlink:href="#m7bd9ff6ba2" y="170.368801"/>
     <use style="fill:#4c72b0;stroke:#4c72b0;stroke-width:2.025;" x="688.580129" xlink:href="#m7bd9ff6ba2" y="127.174483"/>
     <use style="fill:#4c72b0;stroke:#4c72b0;stroke-width:2.025;" x="732.058839" xlink:href="#m7bd9ff6ba2" y="80.261448"/>
    </g>
   </g>
   <g id="line2d_52">
    <path clip-path="url(#p0621c350f4)" d="M 558.144 249.914551 
L 558.144 247.578434 
" style="fill:none;stroke:#4c72b0;stroke-linecap:round;stroke-width:2.7;"/>
   </g>
   <g id="line2d_53">
    <path clip-path="url(#p0621c350f4)" d="M 601.62271 213.003231 
L 601.62271 208.923826 
" style="fill:none;stroke:#4c72b0;stroke-linecap:round;stroke-width:2.7;"/>
   </g>
   <g id="line2d_54">
    <path clip-path="url(#p0621c350f4)" d="M 645.101419 170.368801 
L 645.101419 170.368801 
" style="fill:none;stroke:#4c72b0;stroke-linecap:round;stroke-width:2.7;"/>
   </g>
   <g id="line2d_55">
    <path clip-path="url(#p0621c350f4)" d="M 688.580129 131.751364 
L 688.580129 122.597601 
" style="fill:none;stroke:#4c72b0;stroke-linecap:round;stroke-width:2.7;"/>
   </g>
   <g id="line2d_56">
    <path clip-path="url(#p0621c350f4)" d="M 732.058839 80.261448 
L 732.058839 80.261448 
" style="fill:none;stroke:#4c72b0;stroke-linecap:round;stroke-width:2.7;"/>
   </g>
   <g id="PathCollection_8">
    <g clip-path="url(#p0621c350f4)">
     <use style="fill:#dd8452;stroke:#dd8452;stroke-width:2.025;" x="564.665806" xlink:href="#m7fff3f16ae" y="252.669123"/>
     <use style="fill:#dd8452;stroke:#dd8452;stroke-width:2.025;" x="608.144516" xlink:href="#m7fff3f16ae" y="211.836387"/>
     <use style="fill:#dd8452;stroke:#dd8452;stroke-width:2.025;" x="651.623226" xlink:href="#m7fff3f16ae" y="178.378343"/>
     <use style="fill:#dd8452;stroke:#dd8452;stroke-width:2.025;" x="695.101935" xlink:href="#m7fff3f16ae" y="148.914669"/>
     <use style="fill:#dd8452;stroke:#dd8452;stroke-width:2.025;" x="738.580645" xlink:href="#m7fff3f16ae" y="91.474808"/>
    </g>
   </g>
   <g id="line2d_57">
    <path clip-path="url(#p0621c350f4)" d="M 564.665806 253.59489 
L 564.665806 251.759887 
" style="fill:none;stroke:#dd8452;stroke-linecap:round;stroke-width:2.7;"/>
   </g>
   <g id="line2d_58">
    <path clip-path="url(#p0621c350f4)" d="M 608.144516 213.875179 
L 608.144516 209.72478 
" style="fill:none;stroke:#dd8452;stroke-linecap:round;stroke-width:2.7;"/>
   </g>
   <g id="line2d_59">
    <path clip-path="url(#p0621c350f4)" d="M 651.623226 181.715653 
L 651.623226 175.708496 
" style="fill:none;stroke:#dd8452;stroke-linecap:round;stroke-width:2.7;"/>
   </g>
   <g id="line2d_60">
    <path clip-path="url(#p0621c350f4)" d="M 695.101935 148.914669 
L 695.101935 148.914669 
" style="fill:none;stroke:#dd8452;stroke-linecap:round;stroke-width:2.7;"/>
   </g>
   <g id="line2d_61">
    <path clip-path="url(#p0621c350f4)" d="M 738.580645 99.48435 
L 738.580645 85.067174 
" style="fill:none;stroke:#dd8452;stroke-linecap:round;stroke-width:2.7;"/>
   </g>
   <g id="patch_13">
    <path d="M 542.926452 285.47122 
L 542.926452 69.12 
" style="fill:none;stroke:#ffffff;stroke-linecap:square;stroke-linejoin:miter;stroke-width:1.25;"/>
   </g>
   <g id="patch_14">
    <path d="M 760.32 285.47122 
L 760.32 69.12 
" style="fill:none;stroke:#ffffff;stroke-linecap:square;stroke-linejoin:miter;stroke-width:1.25;"/>
   </g>
   <g id="patch_15">
    <path d="M 542.926452 285.47122 
L 760.32 285.47122 
" style="fill:none;stroke:#ffffff;stroke-linecap:square;stroke-linejoin:miter;stroke-width:1.25;"/>
   </g>
   <g id="patch_16">
    <path d="M 542.926452 69.12 
L 760.32 69.12 
" style="fill:none;stroke:#ffffff;stroke-linecap:square;stroke-linejoin:miter;stroke-width:1.25;"/>
   </g>
   <g id="PathCollection_9">
    <g clip-path="url(#p0621c350f4)">
     <use style="fill:#55a868;stroke:#55a868;stroke-width:2.025;" x="571.187613" xlink:href="#mcb2f54baea" y="247.378196"/>
     <use style="fill:#55a868;stroke:#55a868;stroke-width:2.025;" x="614.666323" xlink:href="#mcb2f54baea" y="206.957847"/>
     <use style="fill:#55a868;stroke:#55a868;stroke-width:2.025;" x="658.145032" xlink:href="#mcb2f54baea" y="170.368801"/>
     <use style="fill:#55a868;stroke:#55a868;stroke-width:2.025;" x="701.623742" xlink:href="#mcb2f54baea" y="122.597601"/>
     <use style="fill:#55a868;stroke:#55a868;stroke-width:2.025;" x="745.102452" xlink:href="#mcb2f54baea" y="80.261448"/>
    </g>
   </g>
   <g id="line2d_62">
    <path clip-path="url(#p0621c350f4)" d="M 571.187613 248.285159 
L 571.187613 246.294552 
" style="fill:none;stroke:#55a868;stroke-linecap:round;stroke-width:2.7;"/>
   </g>
   <g id="line2d_63">
    <path clip-path="url(#p0621c350f4)" d="M 614.666323 208.705384 
L 614.666323 204.773427 
" style="fill:none;stroke:#55a868;stroke-linecap:round;stroke-width:2.7;"/>
   </g>
   <g id="line2d_64">
    <path clip-path="url(#p0621c350f4)" d="M 658.145032 170.368801 
L 658.145032 170.368801 
" style="fill:none;stroke:#55a868;stroke-linecap:round;stroke-width:2.7;"/>
   </g>
   <g id="line2d_65">
    <path clip-path="url(#p0621c350f4)" d="M 701.623742 126.030262 
L 701.623742 120.309161 
" style="fill:none;stroke:#55a868;stroke-linecap:round;stroke-width:2.7;"/>
   </g>
   <g id="line2d_66">
    <path clip-path="url(#p0621c350f4)" d="M 745.102452 80.261448 
L 745.102452 80.261448 
" style="fill:none;stroke:#55a868;stroke-linecap:round;stroke-width:2.7;"/>
   </g>
   <g id="text_11">
    <!-- Field with $100 km^{2}$ area -->
    <defs>
     <path d="M 12.40625 8.296875 
L 28.515625 8.296875 
L 28.515625 63.921875 
L 10.984375 60.40625 
L 10.984375 69.390625 
L 28.421875 72.90625 
L 38.28125 72.90625 
L 38.28125 8.296875 
L 54.390625 8.296875 
L 54.390625 0 
L 12.40625 0 
z
" id="DejaVuSans-49"/>
    </defs>
    <g style="fill:#262626;" transform="translate(587.003226 63.12)scale(0.12 -0.12)">
     <use transform="translate(0 0.765625)" xlink:href="#ArialMT-70"/>
     <use transform="translate(61.083984 0.765625)" xlink:href="#ArialMT-105"/>
     <use transform="translate(83.300781 0.765625)" xlink:href="#ArialMT-101"/>
     <use transform="translate(138.916016 0.765625)" xlink:href="#ArialMT-108"/>
     <use transform="translate(161.132812 0.765625)" xlink:href="#ArialMT-100"/>
     <use transform="translate(216.748047 0.765625)" xlink:href="#ArialMT-32"/>
     <use transform="translate(244.53125 0.765625)" xlink:href="#ArialMT-119"/>
     <use transform="translate(316.748047 0.765625)" xlink:href="#ArialMT-105"/>
     <use transform="translate(338.964844 0.765625)" xlink:href="#ArialMT-116"/>
     <use transform="translate(366.748047 0.765625)" xlink:href="#ArialMT-104"/>
     <use transform="translate(422.363281 0.765625)" xlink:href="#ArialMT-32"/>
     <use transform="translate(450.146484 0.765625)" xlink:href="#DejaVuSans-49"/>
     <use transform="translate(513.769531 0.765625)" xlink:href="#DejaVuSans-48"/>
     <use transform="translate(577.392578 0.765625)" xlink:href="#DejaVuSans-48"/>
     <use transform="translate(641.015625 0.765625)" xlink:href="#DejaVuSans-Oblique-107"/>
     <use transform="translate(698.925781 0.765625)" xlink:href="#DejaVuSans-Oblique-109"/>
     <use transform="translate(800.987786 39.046875)scale(0.7)" xlink:href="#DejaVuSans-50"/>
     <use transform="translate(848.258294 0.765625)" xlink:href="#ArialMT-32"/>
     <use transform="translate(876.041497 0.765625)" xlink:href="#ArialMT-97"/>
     <use transform="translate(931.656732 0.765625)" xlink:href="#ArialMT-114"/>
     <use transform="translate(964.957513 0.765625)" xlink:href="#ArialMT-101"/>
     <use transform="translate(1020.572747 0.765625)" xlink:href="#ArialMT-97"/>
    </g>
   </g>
  </g>
  <g id="axes_4">
   <g id="patch_17">
    <path d="M 86.4 512.64 
L 303.793548 512.64 
L 303.793548 296.28878 
L 86.4 296.28878 
z
" style="fill:#eaeaf2;"/>
   </g>
   <g id="matplotlib.axis_7">
    <g id="xtick_16">
     <g id="text_12">
      <!-- 2.0 -->
      <g style="fill:#262626;" transform="translate(100.494355 530.013594)scale(0.11 -0.11)">
       <use xlink:href="#ArialMT-50"/>
       <use x="55.615234" xlink:href="#ArialMT-46"/>
       <use x="83.398438" xlink:href="#ArialMT-48"/>
      </g>
     </g>
    </g>
    <g id="xtick_17">
     <g id="text_13">
      <!-- 2.5 -->
      <g style="fill:#262626;" transform="translate(143.973065 530.013594)scale(0.11 -0.11)">
       <use xlink:href="#ArialMT-50"/>
       <use x="55.615234" xlink:href="#ArialMT-46"/>
       <use x="83.398438" xlink:href="#ArialMT-53"/>
      </g>
     </g>
    </g>
    <g id="xtick_18">
     <g id="text_14">
      <!-- 3.0 -->
      <defs>
       <path d="M 4.203125 18.890625 
L 12.984375 20.0625 
Q 14.5 12.59375 18.140625 9.296875 
Q 21.78125 6 27 6 
Q 33.203125 6 37.46875 10.296875 
Q 41.75 14.59375 41.75 20.953125 
Q 41.75 27 37.796875 30.921875 
Q 33.84375 34.859375 27.734375 34.859375 
Q 25.25 34.859375 21.53125 33.890625 
L 22.515625 41.609375 
Q 23.390625 41.5 23.921875 41.5 
Q 29.546875 41.5 34.03125 44.421875 
Q 38.53125 47.359375 38.53125 53.46875 
Q 38.53125 58.296875 35.25 61.46875 
Q 31.984375 64.65625 26.8125 64.65625 
Q 21.6875 64.65625 18.265625 61.421875 
Q 14.84375 58.203125 13.875 51.765625 
L 5.078125 53.328125 
Q 6.6875 62.15625 12.390625 67.015625 
Q 18.109375 71.875 26.609375 71.875 
Q 32.46875 71.875 37.390625 69.359375 
Q 42.328125 66.84375 44.9375 62.5 
Q 47.5625 58.15625 47.5625 53.265625 
Q 47.5625 48.640625 45.0625 44.828125 
Q 42.578125 41.015625 37.703125 38.765625 
Q 44.046875 37.3125 47.5625 32.6875 
Q 51.078125 28.078125 51.078125 21.140625 
Q 51.078125 11.765625 44.234375 5.25 
Q 37.40625 -1.265625 26.953125 -1.265625 
Q 17.53125 -1.265625 11.296875 4.34375 
Q 5.078125 9.96875 4.203125 18.890625 
z
" id="ArialMT-51"/>
      </defs>
      <g style="fill:#262626;" transform="translate(187.451774 530.013594)scale(0.11 -0.11)">
       <use xlink:href="#ArialMT-51"/>
       <use x="55.615234" xlink:href="#ArialMT-46"/>
       <use x="83.398438" xlink:href="#ArialMT-48"/>
      </g>
     </g>
    </g>
    <g id="xtick_19">
     <g id="text_15">
      <!-- 3.5 -->
      <g style="fill:#262626;" transform="translate(230.930484 530.013594)scale(0.11 -0.11)">
       <use xlink:href="#ArialMT-51"/>
       <use x="55.615234" xlink:href="#ArialMT-46"/>
       <use x="83.398438" xlink:href="#ArialMT-53"/>
      </g>
     </g>
    </g>
    <g id="xtick_20">
     <g id="text_16">
      <!-- 4.0 -->
      <defs>
       <path d="M 32.328125 0 
L 32.328125 17.140625 
L 1.265625 17.140625 
L 1.265625 25.203125 
L 33.9375 71.578125 
L 41.109375 71.578125 
L 41.109375 25.203125 
L 50.78125 25.203125 
L 50.78125 17.140625 
L 41.109375 17.140625 
L 41.109375 0 
z
M 32.328125 25.203125 
L 32.328125 57.46875 
L 9.90625 25.203125 
z
" id="ArialMT-52"/>
      </defs>
      <g style="fill:#262626;" transform="translate(274.409194 530.013594)scale(0.11 -0.11)">
       <use xlink:href="#ArialMT-52"/>
       <use x="55.615234" xlink:href="#ArialMT-46"/>
       <use x="83.398438" xlink:href="#ArialMT-48"/>
      </g>
     </g>
    </g>
    <g id="text_17">
     <!-- CS coverage radius -->
     <defs>
      <path d="M 40.4375 19 
L 49.078125 17.875 
Q 47.65625 8.9375 41.8125 3.875 
Q 35.984375 -1.171875 27.484375 -1.171875 
Q 16.84375 -1.171875 10.375 5.78125 
Q 3.90625 12.75 3.90625 25.734375 
Q 3.90625 34.125 6.6875 40.421875 
Q 9.46875 46.734375 15.15625 49.875 
Q 20.84375 53.03125 27.546875 53.03125 
Q 35.984375 53.03125 41.359375 48.75 
Q 46.734375 44.484375 48.25 36.625 
L 39.703125 35.296875 
Q 38.484375 40.53125 35.375 43.15625 
Q 32.28125 45.796875 27.875 45.796875 
Q 21.234375 45.796875 17.078125 41.03125 
Q 12.9375 36.28125 12.9375 25.984375 
Q 12.9375 15.53125 16.9375 10.796875 
Q 20.953125 6.0625 27.390625 6.0625 
Q 32.5625 6.0625 36.03125 9.234375 
Q 39.5 12.40625 40.4375 19 
z
" id="ArialMT-99"/>
      <path d="M 4.984375 -4.296875 
L 13.53125 -5.5625 
Q 14.0625 -9.515625 16.5 -11.328125 
Q 19.78125 -13.765625 25.4375 -13.765625 
Q 31.546875 -13.765625 34.859375 -11.328125 
Q 38.1875 -8.890625 39.359375 -4.5 
Q 40.046875 -1.8125 39.984375 6.78125 
Q 34.234375 0 25.640625 0 
Q 14.9375 0 9.078125 7.71875 
Q 3.21875 15.4375 3.21875 26.21875 
Q 3.21875 33.640625 5.90625 39.90625 
Q 8.59375 46.1875 13.6875 49.609375 
Q 18.796875 53.03125 25.6875 53.03125 
Q 34.859375 53.03125 40.828125 45.609375 
L 40.828125 51.859375 
L 48.921875 51.859375 
L 48.921875 7.03125 
Q 48.921875 -5.078125 46.453125 -10.125 
Q 44 -15.1875 38.640625 -18.109375 
Q 33.296875 -21.046875 25.484375 -21.046875 
Q 16.21875 -21.046875 10.5 -16.875 
Q 4.78125 -12.703125 4.984375 -4.296875 
z
M 12.25 26.859375 
Q 12.25 16.65625 16.296875 11.96875 
Q 20.359375 7.28125 26.46875 7.28125 
Q 32.515625 7.28125 36.609375 11.9375 
Q 40.71875 16.609375 40.71875 26.5625 
Q 40.71875 36.078125 36.5 40.90625 
Q 32.28125 45.75 26.3125 45.75 
Q 20.453125 45.75 16.34375 40.984375 
Q 12.25 36.234375 12.25 26.859375 
z
" id="ArialMT-103"/>
      <path d="M 40.578125 0 
L 40.578125 7.625 
Q 34.515625 -1.171875 24.125 -1.171875 
Q 19.53125 -1.171875 15.546875 0.578125 
Q 11.578125 2.34375 9.640625 5 
Q 7.71875 7.671875 6.9375 11.53125 
Q 6.390625 14.109375 6.390625 19.734375 
L 6.390625 51.859375 
L 15.1875 51.859375 
L 15.1875 23.09375 
Q 15.1875 16.21875 15.71875 13.8125 
Q 16.546875 10.359375 19.234375 8.375 
Q 21.921875 6.390625 25.875 6.390625 
Q 29.828125 6.390625 33.296875 8.421875 
Q 36.765625 10.453125 38.203125 13.9375 
Q 39.65625 17.4375 39.65625 24.078125 
L 39.65625 51.859375 
L 48.4375 51.859375 
L 48.4375 0 
z
" id="ArialMT-117"/>
      <path d="M 3.078125 15.484375 
L 11.765625 16.84375 
Q 12.5 11.625 15.84375 8.84375 
Q 19.1875 6.0625 25.203125 6.0625 
Q 31.25 6.0625 34.171875 8.515625 
Q 37.109375 10.984375 37.109375 14.3125 
Q 37.109375 17.28125 34.515625 19 
Q 32.71875 20.171875 25.53125 21.96875 
Q 15.875 24.421875 12.140625 26.203125 
Q 8.40625 27.984375 6.46875 31.125 
Q 4.546875 34.28125 4.546875 38.09375 
Q 4.546875 41.546875 6.125 44.5 
Q 7.71875 47.46875 10.453125 49.421875 
Q 12.5 50.921875 16.03125 51.96875 
Q 19.578125 53.03125 23.640625 53.03125 
Q 29.734375 53.03125 34.34375 51.265625 
Q 38.96875 49.515625 41.15625 46.5 
Q 43.359375 43.5 44.1875 38.484375 
L 35.59375 37.3125 
Q 35.015625 41.3125 32.203125 43.546875 
Q 29.390625 45.796875 24.265625 45.796875 
Q 18.21875 45.796875 15.625 43.796875 
Q 13.03125 41.796875 13.03125 39.109375 
Q 13.03125 37.40625 14.109375 36.03125 
Q 15.1875 34.625 17.484375 33.6875 
Q 18.796875 33.203125 25.25 31.453125 
Q 34.578125 28.953125 38.25 27.359375 
Q 41.9375 25.78125 44.03125 22.75 
Q 46.140625 19.734375 46.140625 15.234375 
Q 46.140625 10.84375 43.578125 6.953125 
Q 41.015625 3.078125 36.171875 0.953125 
Q 31.34375 -1.171875 25.25 -1.171875 
Q 15.140625 -1.171875 9.84375 3.03125 
Q 4.546875 7.234375 3.078125 15.484375 
z
" id="ArialMT-115"/>
     </defs>
     <g style="fill:#262626;" transform="translate(142.406462 544.935469)scale(0.12 -0.12)">
      <use xlink:href="#ArialMT-67"/>
      <use x="72.216797" xlink:href="#ArialMT-83"/>
      <use x="138.916016" xlink:href="#ArialMT-32"/>
      <use x="166.699219" xlink:href="#ArialMT-99"/>
      <use x="216.699219" xlink:href="#ArialMT-111"/>
      <use x="272.314453" xlink:href="#ArialMT-118"/>
      <use x="322.314453" xlink:href="#ArialMT-101"/>
      <use x="377.929688" xlink:href="#ArialMT-114"/>
      <use x="411.230469" xlink:href="#ArialMT-97"/>
      <use x="466.845703" xlink:href="#ArialMT-103"/>
      <use x="522.460938" xlink:href="#ArialMT-101"/>
      <use x="578.076172" xlink:href="#ArialMT-32"/>
      <use x="605.859375" xlink:href="#ArialMT-114"/>
      <use x="639.160156" xlink:href="#ArialMT-97"/>
      <use x="694.775391" xlink:href="#ArialMT-100"/>
      <use x="750.390625" xlink:href="#ArialMT-105"/>
      <use x="772.607422" xlink:href="#ArialMT-117"/>
      <use x="828.222656" xlink:href="#ArialMT-115"/>
     </g>
    </g>
   </g>
   <g id="matplotlib.axis_8">
    <g id="ytick_22">
     <g id="line2d_67">
      <path clip-path="url(#pb7706d7efc)" d="M 86.4 479.956305 
L 303.793548 479.956305 
" style="fill:none;stroke:#ffffff;stroke-linecap:round;"/>
     </g>
     <g id="text_18">
      <!-- 0.3 -->
      <g style="fill:#262626;" transform="translate(61.61 483.893102)scale(0.11 -0.11)">
       <use xlink:href="#ArialMT-48"/>
       <use x="55.615234" xlink:href="#ArialMT-46"/>
       <use x="83.398438" xlink:href="#ArialMT-51"/>
      </g>
     </g>
    </g>
    <g id="ytick_23">
     <g id="line2d_68">
      <path clip-path="url(#pb7706d7efc)" d="M 86.4 439.354396 
L 303.793548 439.354396 
" style="fill:none;stroke:#ffffff;stroke-linecap:round;"/>
     </g>
     <g id="text_19">
      <!-- 0.4 -->
      <g style="fill:#262626;" transform="translate(61.61 443.291192)scale(0.11 -0.11)">
       <use xlink:href="#ArialMT-48"/>
       <use x="55.615234" xlink:href="#ArialMT-46"/>
       <use x="83.398438" xlink:href="#ArialMT-52"/>
      </g>
     </g>
    </g>
    <g id="ytick_24">
     <g id="line2d_69">
      <path clip-path="url(#pb7706d7efc)" d="M 86.4 398.752486 
L 303.793548 398.752486 
" style="fill:none;stroke:#ffffff;stroke-linecap:round;"/>
     </g>
     <g id="text_20">
      <!-- 0.5 -->
      <g style="fill:#262626;" transform="translate(61.61 402.689283)scale(0.11 -0.11)">
       <use xlink:href="#ArialMT-48"/>
       <use x="55.615234" xlink:href="#ArialMT-46"/>
       <use x="83.398438" xlink:href="#ArialMT-53"/>
      </g>
     </g>
    </g>
    <g id="ytick_25">
     <g id="line2d_70">
      <path clip-path="url(#pb7706d7efc)" d="M 86.4 358.150577 
L 303.793548 358.150577 
" style="fill:none;stroke:#ffffff;stroke-linecap:round;"/>
     </g>
     <g id="text_21">
      <!-- 0.6 -->
      <defs>
       <path d="M 49.75 54.046875 
L 41.015625 53.375 
Q 39.84375 58.546875 37.703125 60.890625 
Q 34.125 64.65625 28.90625 64.65625 
Q 24.703125 64.65625 21.53125 62.3125 
Q 17.390625 59.28125 14.984375 53.46875 
Q 12.59375 47.65625 12.5 36.921875 
Q 15.671875 41.75 20.265625 44.09375 
Q 24.859375 46.4375 29.890625 46.4375 
Q 38.671875 46.4375 44.84375 39.96875 
Q 51.03125 33.5 51.03125 23.25 
Q 51.03125 16.5 48.125 10.71875 
Q 45.21875 4.9375 40.140625 1.859375 
Q 35.0625 -1.21875 28.609375 -1.21875 
Q 17.625 -1.21875 10.6875 6.859375 
Q 3.765625 14.9375 3.765625 33.5 
Q 3.765625 54.25 11.421875 63.671875 
Q 18.109375 71.875 29.4375 71.875 
Q 37.890625 71.875 43.28125 67.140625 
Q 48.6875 62.40625 49.75 54.046875 
z
M 13.875 23.1875 
Q 13.875 18.65625 15.796875 14.5 
Q 17.71875 10.359375 21.1875 8.171875 
Q 24.65625 6 28.46875 6 
Q 34.03125 6 38.03125 10.484375 
Q 42.046875 14.984375 42.046875 22.703125 
Q 42.046875 30.125 38.078125 34.390625 
Q 34.125 38.671875 28.125 38.671875 
Q 22.171875 38.671875 18.015625 34.390625 
Q 13.875 30.125 13.875 23.1875 
z
" id="ArialMT-54"/>
      </defs>
      <g style="fill:#262626;" transform="translate(61.61 362.087374)scale(0.11 -0.11)">
       <use xlink:href="#ArialMT-48"/>
       <use x="55.615234" xlink:href="#ArialMT-46"/>
       <use x="83.398438" xlink:href="#ArialMT-54"/>
      </g>
     </g>
    </g>
    <g id="ytick_26">
     <g id="line2d_71">
      <path clip-path="url(#pb7706d7efc)" d="M 86.4 317.548668 
L 303.793548 317.548668 
" style="fill:none;stroke:#ffffff;stroke-linecap:round;"/>
     </g>
     <g id="text_22">
      <!-- 0.7 -->
      <g style="fill:#262626;" transform="translate(61.61 321.485465)scale(0.11 -0.11)">
       <use xlink:href="#ArialMT-48"/>
       <use x="55.615234" xlink:href="#ArialMT-46"/>
       <use x="83.398438" xlink:href="#ArialMT-55"/>
      </g>
     </g>
    </g>
    <g id="text_23">
     <!-- CS Efficiency -->
     <defs>
      <path d="M 7.90625 0 
L 7.90625 71.578125 
L 59.671875 71.578125 
L 59.671875 63.140625 
L 17.390625 63.140625 
L 17.390625 41.21875 
L 56.984375 41.21875 
L 56.984375 32.8125 
L 17.390625 32.8125 
L 17.390625 8.453125 
L 61.328125 8.453125 
L 61.328125 0 
z
" id="ArialMT-69"/>
      <path d="M 8.6875 0 
L 8.6875 45.015625 
L 0.921875 45.015625 
L 0.921875 51.859375 
L 8.6875 51.859375 
L 8.6875 57.375 
Q 8.6875 62.59375 9.625 65.140625 
Q 10.890625 68.5625 14.078125 70.671875 
Q 17.28125 72.796875 23.046875 72.796875 
Q 26.765625 72.796875 31.25 71.921875 
L 29.9375 64.265625 
Q 27.203125 64.75 24.75 64.75 
Q 20.75 64.75 19.09375 63.03125 
Q 17.4375 61.328125 17.4375 56.640625 
L 17.4375 51.859375 
L 27.546875 51.859375 
L 27.546875 45.015625 
L 17.4375 45.015625 
L 17.4375 0 
z
" id="ArialMT-102"/>
      <path d="M 6.59375 0 
L 6.59375 51.859375 
L 14.5 51.859375 
L 14.5 44.484375 
Q 20.21875 53.03125 31 53.03125 
Q 35.6875 53.03125 39.625 51.34375 
Q 43.5625 49.65625 45.515625 46.921875 
Q 47.46875 44.1875 48.25 40.4375 
Q 48.734375 37.984375 48.734375 31.890625 
L 48.734375 0 
L 39.9375 0 
L 39.9375 31.546875 
Q 39.9375 36.921875 38.90625 39.578125 
Q 37.890625 42.234375 35.28125 43.8125 
Q 32.671875 45.40625 29.15625 45.40625 
Q 23.53125 45.40625 19.453125 41.84375 
Q 15.375 38.28125 15.375 28.328125 
L 15.375 0 
z
" id="ArialMT-110"/>
      <path d="M 6.203125 -19.96875 
L 5.21875 -11.71875 
Q 8.109375 -12.5 10.25 -12.5 
Q 13.1875 -12.5 14.9375 -11.515625 
Q 16.703125 -10.546875 17.828125 -8.796875 
Q 18.65625 -7.46875 20.515625 -2.25 
Q 20.75 -1.515625 21.296875 -0.09375 
L 1.609375 51.859375 
L 11.078125 51.859375 
L 21.875 21.828125 
Q 23.96875 16.109375 25.640625 9.8125 
Q 27.15625 15.875 29.25 21.625 
L 40.328125 51.859375 
L 49.125 51.859375 
L 29.390625 -0.875 
Q 26.21875 -9.421875 24.46875 -12.640625 
Q 22.125 -17 19.09375 -19.015625 
Q 16.0625 -21.046875 11.859375 -21.046875 
Q 9.328125 -21.046875 6.203125 -19.96875 
z
" id="ArialMT-121"/>
     </defs>
     <g style="fill:#262626;" transform="translate(55.084375 440.140953)rotate(-90)scale(0.12 -0.12)">
      <use xlink:href="#ArialMT-67"/>
      <use x="72.216797" xlink:href="#ArialMT-83"/>
      <use x="138.916016" xlink:href="#ArialMT-32"/>
      <use x="166.699219" xlink:href="#ArialMT-69"/>
      <use x="233.398438" xlink:href="#ArialMT-102"/>
      <use x="261.166016" xlink:href="#ArialMT-102"/>
      <use x="288.949219" xlink:href="#ArialMT-105"/>
      <use x="311.166016" xlink:href="#ArialMT-99"/>
      <use x="361.166016" xlink:href="#ArialMT-105"/>
      <use x="383.382812" xlink:href="#ArialMT-101"/>
      <use x="438.998047" xlink:href="#ArialMT-110"/>
      <use x="494.613281" xlink:href="#ArialMT-99"/>
      <use x="544.613281" xlink:href="#ArialMT-121"/>
     </g>
    </g>
   </g>
   <g id="PathCollection_10">
    <g clip-path="url(#pb7706d7efc)">
     <use style="fill:#4c72b0;stroke:#4c72b0;stroke-width:2.025;" x="101.617548" xlink:href="#m7bd9ff6ba2" y="403.754966"/>
     <use style="fill:#4c72b0;stroke:#4c72b0;stroke-width:2.025;" x="145.096258" xlink:href="#m7bd9ff6ba2" y="414.956379"/>
     <use style="fill:#4c72b0;stroke:#4c72b0;stroke-width:2.025;" x="188.574968" xlink:href="#m7bd9ff6ba2" y="447.579315"/>
     <use style="fill:#4c72b0;stroke:#4c72b0;stroke-width:2.025;" x="232.053677" xlink:href="#m7bd9ff6ba2" y="472.860506"/>
     <use style="fill:#4c72b0;stroke:#4c72b0;stroke-width:2.025;" x="275.532387" xlink:href="#m7bd9ff6ba2" y="502.07493"/>
    </g>
   </g>
   <g id="line2d_72">
    <path clip-path="url(#pb7706d7efc)" d="M 101.617548 409.907084 
L 101.617548 396.691423 
" style="fill:none;stroke:#4c72b0;stroke-linecap:round;stroke-width:2.7;"/>
   </g>
   <g id="line2d_73">
    <path clip-path="url(#pb7706d7efc)" d="M 145.096258 421.081154 
L 145.096258 410.362797 
" style="fill:none;stroke:#4c72b0;stroke-linecap:round;stroke-width:2.7;"/>
   </g>
   <g id="line2d_74">
    <path clip-path="url(#pb7706d7efc)" d="M 188.574968 456.440391 
L 188.574968 438.718239 
" style="fill:none;stroke:#4c72b0;stroke-linecap:round;stroke-width:2.7;"/>
   </g>
   <g id="line2d_75">
    <path clip-path="url(#pb7706d7efc)" d="M 232.053677 475.464578 
L 232.053677 471.558471 
" style="fill:none;stroke:#4c72b0;stroke-linecap:round;stroke-width:2.7;"/>
   </g>
   <g id="line2d_76">
    <path clip-path="url(#pb7706d7efc)" d="M 275.532387 502.07493 
L 275.532387 502.07493 
" style="fill:none;stroke:#4c72b0;stroke-linecap:round;stroke-width:2.7;"/>
   </g>
   <g id="PathCollection_11">
    <g clip-path="url(#pb7706d7efc)">
     <use style="fill:#dd8452;stroke:#dd8452;stroke-width:2.025;" x="108.139355" xlink:href="#m7fff3f16ae" y="417.198484"/>
     <use style="fill:#dd8452;stroke:#dd8452;stroke-width:2.025;" x="151.618065" xlink:href="#m7fff3f16ae" y="433.330705"/>
     <use style="fill:#dd8452;stroke:#dd8452;stroke-width:2.025;" x="195.096774" xlink:href="#m7fff3f16ae" y="451.123745"/>
     <use style="fill:#dd8452;stroke:#dd8452;stroke-width:2.025;" x="238.575484" xlink:href="#m7fff3f16ae" y="471.558471"/>
     <use style="fill:#dd8452;stroke:#dd8452;stroke-width:2.025;" x="282.054194" xlink:href="#m7fff3f16ae" y="502.07493"/>
    </g>
   </g>
   <g id="line2d_77">
    <path clip-path="url(#pb7706d7efc)" d="M 108.139355 422.89489 
L 108.139355 411.502078 
" style="fill:none;stroke:#dd8452;stroke-linecap:round;stroke-width:2.7;"/>
   </g>
   <g id="line2d_78">
    <path clip-path="url(#pb7706d7efc)" d="M 151.618065 440.986675 
L 151.618065 425.674736 
" style="fill:none;stroke:#dd8452;stroke-linecap:round;stroke-width:2.7;"/>
   </g>
   <g id="line2d_79">
    <path clip-path="url(#pb7706d7efc)" d="M 195.096774 459.984821 
L 195.096774 442.262669 
" style="fill:none;stroke:#dd8452;stroke-linecap:round;stroke-width:2.7;"/>
   </g>
   <g id="line2d_80">
    <path clip-path="url(#pb7706d7efc)" d="M 238.575484 471.558471 
L 238.575484 471.558471 
" style="fill:none;stroke:#dd8452;stroke-linecap:round;stroke-width:2.7;"/>
   </g>
   <g id="line2d_81">
    <path clip-path="url(#pb7706d7efc)" d="M 282.054194 502.07493 
L 282.054194 502.07493 
" style="fill:none;stroke:#dd8452;stroke-linecap:round;stroke-width:2.7;"/>
   </g>
   <g id="patch_18">
    <path d="M 86.4 512.64 
L 86.4 296.28878 
" style="fill:none;stroke:#ffffff;stroke-linecap:square;stroke-linejoin:miter;stroke-width:1.25;"/>
   </g>
   <g id="patch_19">
    <path d="M 303.793548 512.64 
L 303.793548 296.28878 
" style="fill:none;stroke:#ffffff;stroke-linecap:square;stroke-linejoin:miter;stroke-width:1.25;"/>
   </g>
   <g id="patch_20">
    <path d="M 86.4 512.64 
L 303.793548 512.64 
" style="fill:none;stroke:#ffffff;stroke-linecap:square;stroke-linejoin:miter;stroke-width:1.25;"/>
   </g>
   <g id="patch_21">
    <path d="M 86.4 296.28878 
L 303.793548 296.28878 
" style="fill:none;stroke:#ffffff;stroke-linecap:square;stroke-linejoin:miter;stroke-width:1.25;"/>
   </g>
   <g id="PathCollection_12">
    <g clip-path="url(#pb7706d7efc)">
     <use style="fill:#55a868;stroke:#55a868;stroke-width:2.025;" x="114.661161" xlink:href="#mcb2f54baea" y="399.88141"/>
     <use style="fill:#55a868;stroke:#55a868;stroke-width:2.025;" x="158.139871" xlink:href="#mcb2f54baea" y="418.018766"/>
     <use style="fill:#55a868;stroke:#55a868;stroke-width:2.025;" x="201.618581" xlink:href="#mcb2f54baea" y="435.173809"/>
     <use style="fill:#55a868;stroke:#55a868;stroke-width:2.025;" x="245.09729" xlink:href="#mcb2f54baea" y="471.558471"/>
     <use style="fill:#55a868;stroke:#55a868;stroke-width:2.025;" x="288.576" xlink:href="#mcb2f54baea" y="502.07493"/>
    </g>
   </g>
   <g id="line2d_82">
    <path clip-path="url(#pb7706d7efc)" d="M 114.661161 406.044921 
L 114.661161 392.817867 
" style="fill:none;stroke:#55a868;stroke-linecap:round;stroke-width:2.7;"/>
   </g>
   <g id="line2d_83">
    <path clip-path="url(#pb7706d7efc)" d="M 158.139871 424.143542 
L 158.139871 411.893991 
" style="fill:none;stroke:#55a868;stroke-linecap:round;stroke-width:2.7;"/>
   </g>
   <g id="line2d_84">
    <path clip-path="url(#pb7706d7efc)" d="M 201.618581 442.262669 
L 201.618581 428.084948 
" style="fill:none;stroke:#55a868;stroke-linecap:round;stroke-width:2.7;"/>
   </g>
   <g id="line2d_85">
    <path clip-path="url(#pb7706d7efc)" d="M 245.09729 471.558471 
L 245.09729 471.558471 
" style="fill:none;stroke:#55a868;stroke-linecap:round;stroke-width:2.7;"/>
   </g>
   <g id="line2d_86">
    <path clip-path="url(#pb7706d7efc)" d="M 288.576 502.07493 
L 288.576 502.07493 
" style="fill:none;stroke:#55a868;stroke-linecap:round;stroke-width:2.7;"/>
   </g>
  </g>
  <g id="axes_5">
   <g id="patch_22">
    <path d="M 314.663226 512.64 
L 532.056774 512.64 
L 532.056774 296.28878 
L 314.663226 296.28878 
z
" style="fill:#eaeaf2;"/>
   </g>
   <g id="matplotlib.axis_9">
    <g id="xtick_21">
     <g id="text_24">
      <!-- 2.0 -->
      <g style="fill:#262626;" transform="translate(328.757581 530.013594)scale(0.11 -0.11)">
       <use xlink:href="#ArialMT-50"/>
       <use x="55.615234" xlink:href="#ArialMT-46"/>
       <use x="83.398438" xlink:href="#ArialMT-48"/>
      </g>
     </g>
    </g>
    <g id="xtick_22">
     <g id="text_25">
      <!-- 2.5 -->
      <g style="fill:#262626;" transform="translate(372.23629 530.013594)scale(0.11 -0.11)">
       <use xlink:href="#ArialMT-50"/>
       <use x="55.615234" xlink:href="#ArialMT-46"/>
       <use x="83.398438" xlink:href="#ArialMT-53"/>
      </g>
     </g>
    </g>
    <g id="xtick_23">
     <g id="text_26">
      <!-- 3.0 -->
      <g style="fill:#262626;" transform="translate(415.715 530.013594)scale(0.11 -0.11)">
       <use xlink:href="#ArialMT-51"/>
       <use x="55.615234" xlink:href="#ArialMT-46"/>
       <use x="83.398438" xlink:href="#ArialMT-48"/>
      </g>
     </g>
    </g>
    <g id="xtick_24">
     <g id="text_27">
      <!-- 3.5 -->
      <g style="fill:#262626;" transform="translate(459.19371 530.013594)scale(0.11 -0.11)">
       <use xlink:href="#ArialMT-51"/>
       <use x="55.615234" xlink:href="#ArialMT-46"/>
       <use x="83.398438" xlink:href="#ArialMT-53"/>
      </g>
     </g>
    </g>
    <g id="xtick_25">
     <g id="text_28">
      <!-- 4.0 -->
      <g style="fill:#262626;" transform="translate(502.672419 530.013594)scale(0.11 -0.11)">
       <use xlink:href="#ArialMT-52"/>
       <use x="55.615234" xlink:href="#ArialMT-46"/>
       <use x="83.398438" xlink:href="#ArialMT-48"/>
      </g>
     </g>
    </g>
    <g id="text_29">
     <!-- CS coverage radius -->
     <g style="fill:#262626;" transform="translate(370.669687 544.935469)scale(0.12 -0.12)">
      <use xlink:href="#ArialMT-67"/>
      <use x="72.216797" xlink:href="#ArialMT-83"/>
      <use x="138.916016" xlink:href="#ArialMT-32"/>
      <use x="166.699219" xlink:href="#ArialMT-99"/>
      <use x="216.699219" xlink:href="#ArialMT-111"/>
      <use x="272.314453" xlink:href="#ArialMT-118"/>
      <use x="322.314453" xlink:href="#ArialMT-101"/>
      <use x="377.929688" xlink:href="#ArialMT-114"/>
      <use x="411.230469" xlink:href="#ArialMT-97"/>
      <use x="466.845703" xlink:href="#ArialMT-103"/>
      <use x="522.460938" xlink:href="#ArialMT-101"/>
      <use x="578.076172" xlink:href="#ArialMT-32"/>
      <use x="605.859375" xlink:href="#ArialMT-114"/>
      <use x="639.160156" xlink:href="#ArialMT-97"/>
      <use x="694.775391" xlink:href="#ArialMT-100"/>
      <use x="750.390625" xlink:href="#ArialMT-105"/>
      <use x="772.607422" xlink:href="#ArialMT-117"/>
      <use x="828.222656" xlink:href="#ArialMT-115"/>
     </g>
    </g>
   </g>
   <g id="matplotlib.axis_10">
    <g id="ytick_27">
     <g id="line2d_87">
      <path clip-path="url(#p08e5c4d161)" d="M 314.663226 479.956305 
L 532.056774 479.956305 
" style="fill:none;stroke:#ffffff;stroke-linecap:round;"/>
     </g>
    </g>
    <g id="ytick_28">
     <g id="line2d_88">
      <path clip-path="url(#p08e5c4d161)" d="M 314.663226 439.354396 
L 532.056774 439.354396 
" style="fill:none;stroke:#ffffff;stroke-linecap:round;"/>
     </g>
    </g>
    <g id="ytick_29">
     <g id="line2d_89">
      <path clip-path="url(#p08e5c4d161)" d="M 314.663226 398.752486 
L 532.056774 398.752486 
" style="fill:none;stroke:#ffffff;stroke-linecap:round;"/>
     </g>
    </g>
    <g id="ytick_30">
     <g id="line2d_90">
      <path clip-path="url(#p08e5c4d161)" d="M 314.663226 358.150577 
L 532.056774 358.150577 
" style="fill:none;stroke:#ffffff;stroke-linecap:round;"/>
     </g>
    </g>
    <g id="ytick_31">
     <g id="line2d_91">
      <path clip-path="url(#p08e5c4d161)" d="M 314.663226 317.548668 
L 532.056774 317.548668 
" style="fill:none;stroke:#ffffff;stroke-linecap:round;"/>
     </g>
    </g>
   </g>
   <g id="PathCollection_13">
    <g clip-path="url(#p08e5c4d161)">
     <use style="fill:#4c72b0;stroke:#4c72b0;stroke-width:2.025;" x="329.880774" xlink:href="#m7bd9ff6ba2" y="350.816368"/>
     <use style="fill:#4c72b0;stroke:#4c72b0;stroke-width:2.025;" x="373.359484" xlink:href="#m7bd9ff6ba2" y="376.82236"/>
     <use style="fill:#4c72b0;stroke:#4c72b0;stroke-width:2.025;" x="416.838194" xlink:href="#m7bd9ff6ba2" y="389.096215"/>
     <use style="fill:#4c72b0;stroke:#4c72b0;stroke-width:2.025;" x="460.316903" xlink:href="#m7bd9ff6ba2" y="406.45669"/>
     <use style="fill:#4c72b0;stroke:#4c72b0;stroke-width:2.025;" x="503.795613" xlink:href="#m7bd9ff6ba2" y="446.250153"/>
    </g>
   </g>
   <g id="line2d_92">
    <path clip-path="url(#p08e5c4d161)" d="M 329.880774 356.133014 
L 329.880774 345.499723 
" style="fill:none;stroke:#4c72b0;stroke-linecap:round;stroke-width:2.7;"/>
   </g>
   <g id="line2d_93">
    <path clip-path="url(#p08e5c4d161)" d="M 373.359484 382.655479 
L 373.359484 369.89553 
" style="fill:none;stroke:#4c72b0;stroke-linecap:round;stroke-width:2.7;"/>
   </g>
   <g id="line2d_94">
    <path clip-path="url(#p08e5c4d161)" d="M 416.838194 389.096215 
L 416.838194 389.096215 
" style="fill:none;stroke:#4c72b0;stroke-linecap:round;stroke-width:2.7;"/>
   </g>
   <g id="line2d_95">
    <path clip-path="url(#p08e5c4d161)" d="M 460.316903 406.45669 
L 460.316903 406.45669 
" style="fill:none;stroke:#4c72b0;stroke-linecap:round;stroke-width:2.7;"/>
   </g>
   <g id="line2d_96">
    <path clip-path="url(#p08e5c4d161)" d="M 503.795613 452.23138 
L 503.795613 440.268927 
" style="fill:none;stroke:#4c72b0;stroke-linecap:round;stroke-width:2.7;"/>
   </g>
   <g id="PathCollection_14">
    <g clip-path="url(#p08e5c4d161)">
     <use style="fill:#dd8452;stroke:#dd8452;stroke-width:2.025;" x="336.402581" xlink:href="#m7fff3f16ae" y="365.606309"/>
     <use style="fill:#dd8452;stroke:#dd8452;stroke-width:2.025;" x="379.88129" xlink:href="#m7fff3f16ae" y="385.207469"/>
     <use style="fill:#dd8452;stroke:#dd8452;stroke-width:2.025;" x="423.36" xlink:href="#m7fff3f16ae" y="391.931759"/>
     <use style="fill:#dd8452;stroke:#dd8452;stroke-width:2.025;" x="466.83871" xlink:href="#m7fff3f16ae" y="406.45669"/>
     <use style="fill:#dd8452;stroke:#dd8452;stroke-width:2.025;" x="510.317419" xlink:href="#m7fff3f16ae" y="452.23138"/>
    </g>
   </g>
   <g id="line2d_97">
    <path clip-path="url(#p08e5c4d161)" d="M 336.402581 370.342957 
L 336.402581 360.869661 
" style="fill:none;stroke:#dd8452;stroke-linecap:round;stroke-width:2.7;"/>
   </g>
   <g id="line2d_98">
    <path clip-path="url(#p08e5c4d161)" d="M 379.88129 388.488599 
L 379.88129 383.020049 
" style="fill:none;stroke:#dd8452;stroke-linecap:round;stroke-width:2.7;"/>
   </g>
   <g id="line2d_99">
    <path clip-path="url(#p08e5c4d161)" d="M 423.36 396.185076 
L 423.36 389.096215 
" style="fill:none;stroke:#dd8452;stroke-linecap:round;stroke-width:2.7;"/>
   </g>
   <g id="line2d_100">
    <path clip-path="url(#p08e5c4d161)" d="M 466.83871 406.45669 
L 466.83871 406.45669 
" style="fill:none;stroke:#dd8452;stroke-linecap:round;stroke-width:2.7;"/>
   </g>
   <g id="line2d_101">
    <path clip-path="url(#p08e5c4d161)" d="M 510.317419 452.23138 
L 510.317419 452.23138 
" style="fill:none;stroke:#dd8452;stroke-linecap:round;stroke-width:2.7;"/>
   </g>
   <g id="patch_23">
    <path d="M 314.663226 512.64 
L 314.663226 296.28878 
" style="fill:none;stroke:#ffffff;stroke-linecap:square;stroke-linejoin:miter;stroke-width:1.25;"/>
   </g>
   <g id="patch_24">
    <path d="M 532.056774 512.64 
L 532.056774 296.28878 
" style="fill:none;stroke:#ffffff;stroke-linecap:square;stroke-linejoin:miter;stroke-width:1.25;"/>
   </g>
   <g id="patch_25">
    <path d="M 314.663226 512.64 
L 532.056774 512.64 
" style="fill:none;stroke:#ffffff;stroke-linecap:square;stroke-linejoin:miter;stroke-width:1.25;"/>
   </g>
   <g id="patch_26">
    <path d="M 314.663226 296.28878 
L 532.056774 296.28878 
" style="fill:none;stroke:#ffffff;stroke-linecap:square;stroke-linejoin:miter;stroke-width:1.25;"/>
   </g>
   <g id="PathCollection_15">
    <g clip-path="url(#p08e5c4d161)">
     <use style="fill:#55a868;stroke:#55a868;stroke-width:2.025;" x="342.924387" xlink:href="#mcb2f54baea" y="351.686365"/>
     <use style="fill:#55a868;stroke:#55a868;stroke-width:2.025;" x="386.403097" xlink:href="#mcb2f54baea" y="361.145851"/>
     <use style="fill:#55a868;stroke:#55a868;stroke-width:2.025;" x="429.881806" xlink:href="#mcb2f54baea" y="389.096215"/>
     <use style="fill:#55a868;stroke:#55a868;stroke-width:2.025;" x="473.360516" xlink:href="#mcb2f54baea" y="406.45669"/>
     <use style="fill:#55a868;stroke:#55a868;stroke-width:2.025;" x="516.839226" xlink:href="#mcb2f54baea" y="412.356539"/>
    </g>
   </g>
   <g id="line2d_102">
    <path clip-path="url(#p08e5c4d161)" d="M 342.924387 357.873007 
L 342.924387 346.364886 
" style="fill:none;stroke:#55a868;stroke-linecap:round;stroke-width:2.7;"/>
   </g>
   <g id="line2d_103">
    <path clip-path="url(#p08e5c4d161)" d="M 386.403097 368.43725 
L 386.403097 353.854451 
" style="fill:none;stroke:#55a868;stroke-linecap:round;stroke-width:2.7;"/>
   </g>
   <g id="line2d_104">
    <path clip-path="url(#p08e5c4d161)" d="M 429.881806 389.096215 
L 429.881806 389.096215 
" style="fill:none;stroke:#55a868;stroke-linecap:round;stroke-width:2.7;"/>
   </g>
   <g id="line2d_105">
    <path clip-path="url(#p08e5c4d161)" d="M 473.360516 406.45669 
L 473.360516 406.45669 
" style="fill:none;stroke:#55a868;stroke-linecap:round;stroke-width:2.7;"/>
   </g>
   <g id="line2d_106">
    <path clip-path="url(#p08e5c4d161)" d="M 516.839226 420.331507 
L 516.839226 404.381571 
" style="fill:none;stroke:#55a868;stroke-linecap:round;stroke-width:2.7;"/>
   </g>
  </g>
  <g id="axes_6">
   <g id="patch_27">
    <path d="M 542.926452 512.64 
L 760.32 512.64 
L 760.32 296.28878 
L 542.926452 296.28878 
z
" style="fill:#eaeaf2;"/>
   </g>
   <g id="matplotlib.axis_11">
    <g id="xtick_26">
     <g id="text_30">
      <!-- 2.0 -->
      <g style="fill:#262626;" transform="translate(557.020806 530.013594)scale(0.11 -0.11)">
       <use xlink:href="#ArialMT-50"/>
       <use x="55.615234" xlink:href="#ArialMT-46"/>
       <use x="83.398438" xlink:href="#ArialMT-48"/>
      </g>
     </g>
    </g>
    <g id="xtick_27">
     <g id="text_31">
      <!-- 2.5 -->
      <g style="fill:#262626;" transform="translate(600.499516 530.013594)scale(0.11 -0.11)">
       <use xlink:href="#ArialMT-50"/>
       <use x="55.615234" xlink:href="#ArialMT-46"/>
       <use x="83.398438" xlink:href="#ArialMT-53"/>
      </g>
     </g>
    </g>
    <g id="xtick_28">
     <g id="text_32">
      <!-- 3.0 -->
      <g style="fill:#262626;" transform="translate(643.978226 530.013594)scale(0.11 -0.11)">
       <use xlink:href="#ArialMT-51"/>
       <use x="55.615234" xlink:href="#ArialMT-46"/>
       <use x="83.398438" xlink:href="#ArialMT-48"/>
      </g>
     </g>
    </g>
    <g id="xtick_29">
     <g id="text_33">
      <!-- 3.5 -->
      <g style="fill:#262626;" transform="translate(687.456935 530.013594)scale(0.11 -0.11)">
       <use xlink:href="#ArialMT-51"/>
       <use x="55.615234" xlink:href="#ArialMT-46"/>
       <use x="83.398438" xlink:href="#ArialMT-53"/>
      </g>
     </g>
    </g>
    <g id="xtick_30">
     <g id="text_34">
      <!-- 4.0 -->
      <g style="fill:#262626;" transform="translate(730.935645 530.013594)scale(0.11 -0.11)">
       <use xlink:href="#ArialMT-52"/>
       <use x="55.615234" xlink:href="#ArialMT-46"/>
       <use x="83.398438" xlink:href="#ArialMT-48"/>
      </g>
     </g>
    </g>
    <g id="text_35">
     <!-- CS coverage radius -->
     <g style="fill:#262626;" transform="translate(598.932913 544.935469)scale(0.12 -0.12)">
      <use xlink:href="#ArialMT-67"/>
      <use x="72.216797" xlink:href="#ArialMT-83"/>
      <use x="138.916016" xlink:href="#ArialMT-32"/>
      <use x="166.699219" xlink:href="#ArialMT-99"/>
      <use x="216.699219" xlink:href="#ArialMT-111"/>
      <use x="272.314453" xlink:href="#ArialMT-118"/>
      <use x="322.314453" xlink:href="#ArialMT-101"/>
      <use x="377.929688" xlink:href="#ArialMT-114"/>
      <use x="411.230469" xlink:href="#ArialMT-97"/>
      <use x="466.845703" xlink:href="#ArialMT-103"/>
      <use x="522.460938" xlink:href="#ArialMT-101"/>
      <use x="578.076172" xlink:href="#ArialMT-32"/>
      <use x="605.859375" xlink:href="#ArialMT-114"/>
      <use x="639.160156" xlink:href="#ArialMT-97"/>
      <use x="694.775391" xlink:href="#ArialMT-100"/>
      <use x="750.390625" xlink:href="#ArialMT-105"/>
      <use x="772.607422" xlink:href="#ArialMT-117"/>
      <use x="828.222656" xlink:href="#ArialMT-115"/>
     </g>
    </g>
   </g>
   <g id="matplotlib.axis_12">
    <g id="ytick_32">
     <g id="line2d_107">
      <path clip-path="url(#p965dfe5830)" d="M 542.926452 479.956305 
L 760.32 479.956305 
" style="fill:none;stroke:#ffffff;stroke-linecap:round;"/>
     </g>
    </g>
    <g id="ytick_33">
     <g id="line2d_108">
      <path clip-path="url(#p965dfe5830)" d="M 542.926452 439.354396 
L 760.32 439.354396 
" style="fill:none;stroke:#ffffff;stroke-linecap:round;"/>
     </g>
    </g>
    <g id="ytick_34">
     <g id="line2d_109">
      <path clip-path="url(#p965dfe5830)" d="M 542.926452 398.752486 
L 760.32 398.752486 
" style="fill:none;stroke:#ffffff;stroke-linecap:round;"/>
     </g>
    </g>
    <g id="ytick_35">
     <g id="line2d_110">
      <path clip-path="url(#p965dfe5830)" d="M 542.926452 358.150577 
L 760.32 358.150577 
" style="fill:none;stroke:#ffffff;stroke-linecap:round;"/>
     </g>
    </g>
    <g id="ytick_36">
     <g id="line2d_111">
      <path clip-path="url(#p965dfe5830)" d="M 542.926452 317.548668 
L 760.32 317.548668 
" style="fill:none;stroke:#ffffff;stroke-linecap:round;"/>
     </g>
    </g>
   </g>
   <g id="PathCollection_16">
    <g clip-path="url(#p965dfe5830)">
     <use style="fill:#4c72b0;stroke:#4c72b0;stroke-width:2.025;" x="558.144" xlink:href="#m7bd9ff6ba2" y="315.835969"/>
     <use style="fill:#4c72b0;stroke:#4c72b0;stroke-width:2.025;" x="601.62271" xlink:href="#m7bd9ff6ba2" y="322.620748"/>
     <use style="fill:#4c72b0;stroke:#4c72b0;stroke-width:2.025;" x="645.101419" xlink:href="#m7bd9ff6ba2" y="335.929761"/>
     <use style="fill:#4c72b0;stroke:#4c72b0;stroke-width:2.025;" x="688.580129" xlink:href="#m7bd9ff6ba2" y="350.283154"/>
     <use style="fill:#4c72b0;stroke:#4c72b0;stroke-width:2.025;" x="732.058839" xlink:href="#m7bd9ff6ba2" y="362.512988"/>
    </g>
   </g>
   <g id="line2d_112">
    <path clip-path="url(#p965dfe5830)" d="M 558.144 319.903594 
L 558.144 311.692113 
" style="fill:none;stroke:#4c72b0;stroke-linecap:round;stroke-width:2.7;"/>
   </g>
   <g id="line2d_113">
    <path clip-path="url(#p965dfe5830)" d="M 601.62271 327.817527 
L 601.62271 316.310373 
" style="fill:none;stroke:#4c72b0;stroke-linecap:round;stroke-width:2.7;"/>
   </g>
   <g id="line2d_114">
    <path clip-path="url(#p965dfe5830)" d="M 645.101419 335.929761 
L 645.101419 335.929761 
" style="fill:none;stroke:#4c72b0;stroke-linecap:round;stroke-width:2.7;"/>
   </g>
   <g id="line2d_115">
    <path clip-path="url(#p965dfe5830)" d="M 688.580129 357.723357 
L 688.580129 344.330991 
" style="fill:none;stroke:#4c72b0;stroke-linecap:round;stroke-width:2.7;"/>
   </g>
   <g id="line2d_116">
    <path clip-path="url(#p965dfe5830)" d="M 732.058839 362.512988 
L 732.058839 362.512988 
" style="fill:none;stroke:#4c72b0;stroke-linecap:round;stroke-width:2.7;"/>
   </g>
   <g id="PathCollection_17">
    <g clip-path="url(#p965dfe5830)">
     <use style="fill:#dd8452;stroke:#dd8452;stroke-width:2.025;" x="564.665806" xlink:href="#m7fff3f16ae" y="331.419666"/>
     <use style="fill:#dd8452;stroke:#dd8452;stroke-width:2.025;" x="608.144516" xlink:href="#m7fff3f16ae" y="324.662339"/>
     <use style="fill:#dd8452;stroke:#dd8452;stroke-width:2.025;" x="651.623226" xlink:href="#m7fff3f16ae" y="350.107482"/>
     <use style="fill:#dd8452;stroke:#dd8452;stroke-width:2.025;" x="695.101935" xlink:href="#m7fff3f16ae" y="378.555927"/>
     <use style="fill:#dd8452;stroke:#dd8452;stroke-width:2.025;" x="738.580645" xlink:href="#m7fff3f16ae" y="373.677944"/>
    </g>
   </g>
   <g id="line2d_117">
    <path clip-path="url(#p965dfe5830)" d="M 564.665806 334.614591 
L 564.665806 327.798421 
" style="fill:none;stroke:#dd8452;stroke-linecap:round;stroke-width:2.7;"/>
   </g>
   <g id="line2d_118">
    <path clip-path="url(#p965dfe5830)" d="M 608.144516 329.859119 
L 608.144516 319.094362 
" style="fill:none;stroke:#dd8452;stroke-linecap:round;stroke-width:2.7;"/>
   </g>
   <g id="line2d_119">
    <path clip-path="url(#p965dfe5830)" d="M 651.623226 356.014866 
L 651.623226 344.200098 
" style="fill:none;stroke:#dd8452;stroke-linecap:round;stroke-width:2.7;"/>
   </g>
   <g id="line2d_120">
    <path clip-path="url(#p965dfe5830)" d="M 695.101935 378.555927 
L 695.101935 378.555927 
" style="fill:none;stroke:#dd8452;stroke-linecap:round;stroke-width:2.7;"/>
   </g>
   <g id="line2d_121">
    <path clip-path="url(#p965dfe5830)" d="M 738.580645 381.652912 
L 738.580645 367.297969 
" style="fill:none;stroke:#dd8452;stroke-linecap:round;stroke-width:2.7;"/>
   </g>
   <g id="patch_28">
    <path d="M 542.926452 512.64 
L 542.926452 296.28878 
" style="fill:none;stroke:#ffffff;stroke-linecap:square;stroke-linejoin:miter;stroke-width:1.25;"/>
   </g>
   <g id="patch_29">
    <path d="M 760.32 512.64 
L 760.32 296.28878 
" style="fill:none;stroke:#ffffff;stroke-linecap:square;stroke-linejoin:miter;stroke-width:1.25;"/>
   </g>
   <g id="patch_30">
    <path d="M 542.926452 512.64 
L 760.32 512.64 
" style="fill:none;stroke:#ffffff;stroke-linecap:square;stroke-linejoin:miter;stroke-width:1.25;"/>
   </g>
   <g id="patch_31">
    <path d="M 542.926452 296.28878 
L 760.32 296.28878 
" style="fill:none;stroke:#ffffff;stroke-linecap:square;stroke-linejoin:miter;stroke-width:1.25;"/>
   </g>
   <g id="PathCollection_18">
    <g clip-path="url(#p965dfe5830)">
     <use style="fill:#55a868;stroke:#55a868;stroke-width:2.025;" x="571.187613" xlink:href="#mcb2f54baea" y="310.347314"/>
     <use style="fill:#55a868;stroke:#55a868;stroke-width:2.025;" x="614.666323" xlink:href="#mcb2f54baea" y="312.227189"/>
     <use style="fill:#55a868;stroke:#55a868;stroke-width:2.025;" x="658.145032" xlink:href="#mcb2f54baea" y="335.929761"/>
     <use style="fill:#55a868;stroke:#55a868;stroke-width:2.025;" x="701.623742" xlink:href="#mcb2f54baea" y="344.330991"/>
     <use style="fill:#55a868;stroke:#55a868;stroke-width:2.025;" x="745.102452" xlink:href="#mcb2f54baea" y="362.512988"/>
    </g>
   </g>
   <g id="line2d_122">
    <path clip-path="url(#p965dfe5830)" d="M 571.187613 314.569356 
L 571.187613 306.122927 
" style="fill:none;stroke:#55a868;stroke-linecap:round;stroke-width:2.7;"/>
   </g>
   <g id="line2d_123">
    <path clip-path="url(#p965dfe5830)" d="M 614.666323 317.795167 
L 614.666323 306.659211 
" style="fill:none;stroke:#55a868;stroke-linecap:round;stroke-width:2.7;"/>
   </g>
   <g id="line2d_124">
    <path clip-path="url(#p965dfe5830)" d="M 658.145032 335.929761 
L 658.145032 335.929761 
" style="fill:none;stroke:#55a868;stroke-linecap:round;stroke-width:2.7;"/>
   </g>
   <g id="line2d_125">
    <path clip-path="url(#p965dfe5830)" d="M 701.623742 348.795113 
L 701.623742 341.35491 
" style="fill:none;stroke:#55a868;stroke-linecap:round;stroke-width:2.7;"/>
   </g>
   <g id="line2d_126">
    <path clip-path="url(#p965dfe5830)" d="M 745.102452 362.512988 
L 745.102452 362.512988 
" style="fill:none;stroke:#55a868;stroke-linecap:round;stroke-width:2.7;"/>
   </g>
  </g>
  <g id="legend_1">
   <g id="patch_32">
    <path d="M 771.570781 321.563672 
L 856.3 321.563672 
Q 858.5 321.563672 858.5 319.363672 
L 858.5 256.636328 
Q 858.5 254.436328 856.3 254.436328 
L 771.570781 254.436328 
Q 769.370781 254.436328 769.370781 256.636328 
L 769.370781 319.363672 
Q 769.370781 321.563672 771.570781 321.563672 
z
" style="fill:#eaeaf2;opacity:0.8;stroke:#cccccc;stroke-linejoin:miter;"/>
   </g>
   <g id="text_36">
    <!-- Legend -->
    <defs>
     <path d="M 7.328125 0 
L 7.328125 71.578125 
L 16.796875 71.578125 
L 16.796875 8.453125 
L 52.046875 8.453125 
L 52.046875 0 
z
" id="ArialMT-76"/>
    </defs>
    <g style="fill:#262626;" transform="translate(793.916016 267.425703)scale(0.12 -0.12)">
     <use xlink:href="#ArialMT-76"/>
     <use x="55.615234" xlink:href="#ArialMT-101"/>
     <use x="111.230469" xlink:href="#ArialMT-103"/>
     <use x="166.845703" xlink:href="#ArialMT-101"/>
     <use x="222.460938" xlink:href="#ArialMT-110"/>
     <use x="278.076172" xlink:href="#ArialMT-100"/>
    </g>
   </g>
   <g id="PathCollection_19">
    <g>
     <use style="fill:#4c72b0;stroke:#4c72b0;stroke-width:2.025;" x="784.770781" xlink:href="#m7bd9ff6ba2" y="280.571484"/>
    </g>
   </g>
   <g id="text_37">
    <!-- Square -->
    <defs>
     <path d="M 39.65625 -19.875 
L 39.65625 5.515625 
Q 37.59375 2.640625 33.90625 0.734375 
Q 30.21875 -1.171875 26.078125 -1.171875 
Q 16.84375 -1.171875 10.171875 6.203125 
Q 3.515625 13.578125 3.515625 26.421875 
Q 3.515625 34.234375 6.21875 40.421875 
Q 8.9375 46.625 14.078125 49.828125 
Q 19.234375 53.03125 25.390625 53.03125 
Q 35.015625 53.03125 40.53125 44.921875 
L 40.53125 51.859375 
L 48.4375 51.859375 
L 48.4375 -19.875 
z
M 12.546875 26.078125 
Q 12.546875 16.0625 16.75 11.0625 
Q 20.953125 6.0625 26.8125 6.0625 
Q 32.421875 6.0625 36.46875 10.8125 
Q 40.53125 15.578125 40.53125 25.296875 
Q 40.53125 35.640625 36.25 40.859375 
Q 31.984375 46.09375 26.21875 46.09375 
Q 20.515625 46.09375 16.53125 41.234375 
Q 12.546875 36.375 12.546875 26.078125 
z
" id="ArialMT-113"/>
    </defs>
    <g style="fill:#262626;" transform="translate(804.570781 283.458984)scale(0.11 -0.11)">
     <use xlink:href="#ArialMT-83"/>
     <use x="66.699219" xlink:href="#ArialMT-113"/>
     <use x="122.314453" xlink:href="#ArialMT-117"/>
     <use x="177.929688" xlink:href="#ArialMT-97"/>
     <use x="233.544922" xlink:href="#ArialMT-114"/>
     <use x="266.845703" xlink:href="#ArialMT-101"/>
    </g>
   </g>
   <g id="PathCollection_20">
    <g>
     <use style="fill:#dd8452;stroke:#dd8452;stroke-width:2.025;" x="784.770781" xlink:href="#m7fff3f16ae" y="296.131328"/>
    </g>
   </g>
   <g id="text_38">
    <!-- Rectangle -->
    <defs>
     <path d="M 7.859375 0 
L 7.859375 71.578125 
L 39.59375 71.578125 
Q 49.171875 71.578125 54.140625 69.640625 
Q 59.125 67.71875 62.109375 62.828125 
Q 65.09375 57.953125 65.09375 52.046875 
Q 65.09375 44.4375 60.15625 39.203125 
Q 55.21875 33.984375 44.921875 32.5625 
Q 48.6875 30.765625 50.640625 29 
Q 54.78125 25.203125 58.5 19.484375 
L 70.953125 0 
L 59.03125 0 
L 49.5625 14.890625 
Q 45.40625 21.34375 42.71875 24.75 
Q 40.046875 28.171875 37.921875 29.53125 
Q 35.796875 30.90625 33.59375 31.453125 
Q 31.984375 31.78125 28.328125 31.78125 
L 17.328125 31.78125 
L 17.328125 0 
z
M 17.328125 39.984375 
L 37.703125 39.984375 
Q 44.1875 39.984375 47.84375 41.328125 
Q 51.515625 42.671875 53.421875 45.625 
Q 55.328125 48.578125 55.328125 52.046875 
Q 55.328125 57.125 51.640625 60.390625 
Q 47.953125 63.671875 39.984375 63.671875 
L 17.328125 63.671875 
z
" id="ArialMT-82"/>
    </defs>
    <g style="fill:#262626;" transform="translate(804.570781 299.018828)scale(0.11 -0.11)">
     <use xlink:href="#ArialMT-82"/>
     <use x="72.216797" xlink:href="#ArialMT-101"/>
     <use x="127.832031" xlink:href="#ArialMT-99"/>
     <use x="177.832031" xlink:href="#ArialMT-116"/>
     <use x="205.615234" xlink:href="#ArialMT-97"/>
     <use x="261.230469" xlink:href="#ArialMT-110"/>
     <use x="316.845703" xlink:href="#ArialMT-103"/>
     <use x="372.460938" xlink:href="#ArialMT-108"/>
     <use x="394.677734" xlink:href="#ArialMT-101"/>
    </g>
   </g>
   <g id="PathCollection_21">
    <g>
     <use style="fill:#55a868;stroke:#55a868;stroke-width:2.025;" x="784.770781" xlink:href="#mcb2f54baea" y="311.961016"/>
    </g>
   </g>
   <g id="text_39">
    <!-- Octagon -->
    <defs>
     <path d="M 4.828125 34.859375 
Q 4.828125 52.6875 14.390625 62.765625 
Q 23.96875 72.859375 39.109375 72.859375 
Q 49.03125 72.859375 56.984375 68.109375 
Q 64.9375 63.375 69.109375 54.90625 
Q 73.296875 46.4375 73.296875 35.6875 
Q 73.296875 24.8125 68.890625 16.21875 
Q 64.5 7.625 56.4375 3.203125 
Q 48.390625 -1.21875 39.0625 -1.21875 
Q 28.953125 -1.21875 20.984375 3.65625 
Q 13.03125 8.546875 8.921875 16.984375 
Q 4.828125 25.4375 4.828125 34.859375 
z
M 14.59375 34.71875 
Q 14.59375 21.78125 21.546875 14.328125 
Q 28.515625 6.890625 39.015625 6.890625 
Q 49.703125 6.890625 56.609375 14.40625 
Q 63.53125 21.921875 63.53125 35.75 
Q 63.53125 44.484375 60.578125 51 
Q 57.625 57.515625 51.921875 61.109375 
Q 46.234375 64.703125 39.15625 64.703125 
Q 29.109375 64.703125 21.84375 57.78125 
Q 14.59375 50.875 14.59375 34.71875 
z
" id="ArialMT-79"/>
    </defs>
    <g style="fill:#262626;" transform="translate(804.570781 314.848516)scale(0.11 -0.11)">
     <use xlink:href="#ArialMT-79"/>
     <use x="77.783203" xlink:href="#ArialMT-99"/>
     <use x="127.783203" xlink:href="#ArialMT-116"/>
     <use x="155.566406" xlink:href="#ArialMT-97"/>
     <use x="211.181641" xlink:href="#ArialMT-103"/>
     <use x="266.796875" xlink:href="#ArialMT-111"/>
     <use x="322.412109" xlink:href="#ArialMT-110"/>
    </g>
   </g>
  </g>
 </g>
 <defs>
  <clipPath id="p772597dbee">
   <rect height="216.35122" width="217.393548" x="86.4" y="69.12"/>
  </clipPath>
  <clipPath id="p7e93a0f776">
   <rect height="216.35122" width="217.393548" x="314.663226" y="69.12"/>
  </clipPath>
  <clipPath id="p0621c350f4">
   <rect height="216.35122" width="217.393548" x="542.926452" y="69.12"/>
  </clipPath>
  <clipPath id="pb7706d7efc">
   <rect height="216.35122" width="217.393548" x="86.4" y="296.28878"/>
  </clipPath>
  <clipPath id="p08e5c4d161">
   <rect height="216.35122" width="217.393548" x="314.663226" y="296.28878"/>
  </clipPath>
  <clipPath id="p965dfe5830">
   <rect height="216.35122" width="217.393548" x="542.926452" y="296.28878"/>
  </clipPath>
 </defs>
</svg>
